G04 #@! TF.GenerationSoftware,KiCad,Pcbnew,6.0.6-3a73a75311~116~ubuntu21.10.1*
G04 #@! TF.CreationDate,2023-05-20T20:22:18-06:00*
G04 #@! TF.ProjectId,reddit,72656464-6974-42e6-9b69-6361645f7063,rev?*
G04 #@! TF.SameCoordinates,Original*
G04 #@! TF.FileFunction,Profile,NP*
%FSLAX46Y46*%
G04 Gerber Fmt 4.6, Leading zero omitted, Abs format (unit mm)*
G04 Created by KiCad (PCBNEW 6.0.6-3a73a75311~116~ubuntu21.10.1) date 2023-05-20 20:22:18*
%MOMM*%
%LPD*%
G01*
G04 APERTURE LIST*
G04 #@! TA.AperFunction,Profile*
%ADD10C,0.050000*%
G04 #@! TD*
G04 APERTURE END LIST*
D10*
X157607000Y-123571000D02*
X157657800Y-123748800D01*
X145034000Y-137464800D02*
X145313400Y-138353800D01*
X136702800Y-52679600D02*
X136550400Y-52705000D01*
X128422400Y-65201800D02*
X128600200Y-65024000D01*
X134366000Y-68656200D02*
X134391400Y-68478400D01*
X134264400Y-68834000D02*
X134086600Y-68935600D01*
X141224000Y-61341000D02*
X140919200Y-60528200D01*
X144551400Y-144297400D02*
X144297400Y-144576800D01*
X120319800Y-56388000D02*
X120675400Y-56311800D01*
X144297400Y-144576800D02*
X144068800Y-144780000D01*
X128371600Y-58318400D02*
X128752600Y-58039000D01*
X130352800Y-103962200D02*
X129794000Y-103733600D01*
X129895600Y-124485400D02*
X129794000Y-123825000D01*
X144373600Y-136550400D02*
X144399000Y-136093200D01*
X130022600Y-114376200D02*
X130327400Y-113182400D01*
X134620000Y-129641600D02*
X134569200Y-129514600D01*
X144754600Y-144043400D02*
X144551400Y-144297400D01*
X163703000Y-72466200D02*
X164668200Y-73228200D01*
X117221000Y-67716400D02*
X117017800Y-67538600D01*
X162737800Y-121767600D02*
X162483800Y-122504200D01*
X115519200Y-61010800D02*
X115747800Y-60325000D01*
X142290800Y-64668400D02*
X142189200Y-64363600D01*
X160401000Y-124561600D02*
X159842200Y-124637800D01*
X136499600Y-143865600D02*
X136194800Y-143535400D01*
X120726200Y-75438000D02*
X121386600Y-75057000D01*
X137871200Y-144881600D02*
X137464800Y-144602200D01*
X121666000Y-56261000D02*
X122555000Y-56261000D01*
X154609800Y-134772400D02*
X155422600Y-135991600D01*
X166217600Y-96139000D02*
X165582600Y-97358200D01*
X128473200Y-71272400D02*
X129514600Y-70739000D01*
X124891800Y-100685600D02*
X124155200Y-100076000D01*
X118414800Y-77368400D02*
X118872000Y-76911200D01*
X129717800Y-57353200D02*
X130378200Y-56896000D01*
X129794000Y-115722400D02*
X130022600Y-114376200D01*
X140335000Y-145770600D02*
X139903200Y-145719800D01*
X119710200Y-92887800D02*
X119532400Y-92379800D01*
X121970800Y-74777600D02*
X122682000Y-74498200D01*
X144399000Y-136093200D02*
X144475200Y-135483600D01*
X136753600Y-144094200D02*
X136499600Y-143865600D01*
X120675400Y-56311800D02*
X120929400Y-56286400D01*
X134569200Y-129514600D02*
X134493000Y-129438400D01*
X155194000Y-141706600D02*
X154813000Y-141960600D01*
X119837200Y-56540400D02*
X120319800Y-56388000D01*
X162737800Y-100634800D02*
X161874200Y-101371400D01*
X147421600Y-67462400D02*
X146177000Y-67360800D01*
X167436800Y-81788000D02*
X167259000Y-82524600D01*
X132918200Y-69316600D02*
X133604000Y-69088000D01*
X125552200Y-67945000D02*
X125958600Y-67767200D01*
X166801800Y-76098400D02*
X167259000Y-77266800D01*
X167386000Y-93116400D02*
X166751000Y-95123000D01*
X157657800Y-123748800D02*
X157683200Y-124333000D01*
X156413200Y-139217400D02*
X156337000Y-139725400D01*
X157708600Y-70891400D02*
X157835600Y-70942200D01*
X115239800Y-63398400D02*
X115239800Y-62636400D01*
X145415000Y-142748000D02*
X145288000Y-143103600D01*
X140487400Y-59385200D02*
X140284200Y-58851800D01*
X129438400Y-119684800D02*
X129463800Y-118491000D01*
X144602200Y-137591800D02*
X144449800Y-137236200D01*
X159004000Y-124485400D02*
X158419800Y-124231400D01*
X115290600Y-64033400D02*
X115239800Y-63398400D01*
X156337000Y-139725400D02*
X156210000Y-140284200D01*
X125272800Y-68097400D02*
X125552200Y-67945000D01*
X116789200Y-80060800D02*
X116941600Y-79705200D01*
X155473400Y-132537200D02*
X154863800Y-134188200D01*
X132283200Y-69545200D02*
X132918200Y-69316600D01*
X122986800Y-69291200D02*
X122326400Y-69392800D01*
X137058400Y-144348200D02*
X136753600Y-144094200D01*
X151739600Y-142824200D02*
X151155400Y-142798800D01*
X131318000Y-104394000D02*
X130860800Y-104190800D01*
X156184600Y-70053200D02*
X157505400Y-70764400D01*
X118516400Y-57175400D02*
X119303800Y-56769000D01*
X129667000Y-116484400D02*
X129794000Y-115722400D01*
X140919200Y-60528200D02*
X140487400Y-59385200D01*
X115747800Y-60325000D02*
X116001800Y-59817000D01*
X125958600Y-67767200D02*
X126669800Y-67310000D01*
X129794000Y-123825000D02*
X129667000Y-123113800D01*
X155498800Y-141427200D02*
X155194000Y-141706600D01*
X134924800Y-141478000D02*
X134721600Y-141020800D01*
X167538400Y-78486000D02*
X167640000Y-79400400D01*
X166116000Y-74879200D02*
X166243000Y-75057000D01*
X134188200Y-64084200D02*
X133985000Y-63576200D01*
X134391400Y-68478400D02*
X134391400Y-66954400D01*
X124739400Y-56769000D02*
X125374400Y-57099200D01*
X159207200Y-70967600D02*
X159969200Y-71043800D01*
X144500600Y-135229600D02*
X144526000Y-135153400D01*
X122682000Y-74498200D02*
X123190000Y-74345800D01*
X145592800Y-140462000D02*
X145643600Y-140970000D01*
X157099000Y-104241600D02*
X157099000Y-104267000D01*
X157276800Y-104114600D02*
X157099000Y-104241600D01*
X132588000Y-128981200D02*
X132308600Y-128778000D01*
X134264400Y-138455400D02*
X134264400Y-137871200D01*
X144830800Y-135991600D02*
X144856200Y-136550400D01*
X160578800Y-71145400D02*
X161417000Y-71348600D01*
X124155200Y-100076000D02*
X123698000Y-99593400D01*
X125526800Y-101219000D02*
X124891800Y-100685600D01*
X129565400Y-117398800D02*
X129667000Y-116484400D01*
X115341400Y-64262000D02*
X115290600Y-64033400D01*
X156083000Y-140589000D02*
X155854400Y-140944600D01*
X125526800Y-57175400D02*
X126212600Y-57632600D01*
X123926600Y-74168000D02*
X124307600Y-74117200D01*
X119075200Y-90271600D02*
X118973600Y-89839800D01*
X132664200Y-62966600D02*
X132969000Y-62890400D01*
X144551400Y-135128000D02*
X144627600Y-135102600D01*
X118211600Y-88900000D02*
X117932200Y-88544400D01*
X123190000Y-74345800D02*
X123545600Y-74244200D01*
X116535200Y-85750400D02*
X116382800Y-85140800D01*
X129514600Y-70739000D02*
X129870200Y-70561200D01*
X141909800Y-63398400D02*
X141630400Y-62560200D01*
X121386600Y-75057000D02*
X121970800Y-74777600D01*
X130860800Y-104190800D02*
X130352800Y-103962200D01*
X149326600Y-67741800D02*
X150901400Y-68122800D01*
X129870200Y-70561200D02*
X130860800Y-70129400D01*
X145288000Y-139217400D02*
X145211800Y-138963400D01*
X138836400Y-55651400D02*
X138404600Y-54813200D01*
X116281200Y-82169000D02*
X116357400Y-81457800D01*
X120954800Y-95910400D02*
X120599200Y-95224600D01*
X162839400Y-117398800D02*
X162890200Y-118338600D01*
X139141200Y-145491200D02*
X138480800Y-145237200D01*
X133604000Y-69088000D02*
X134086600Y-68935600D01*
X148209000Y-141757400D02*
X147828000Y-141478000D01*
X167614600Y-80213200D02*
X167563800Y-80822800D01*
X145135600Y-143433800D02*
X144907000Y-143840200D01*
X129209800Y-57708800D02*
X129717800Y-57353200D01*
X165582600Y-97358200D02*
X164820600Y-98348800D01*
X161137600Y-111201200D02*
X161569400Y-112344200D01*
X118973600Y-89839800D02*
X118897400Y-89662000D01*
X142392400Y-67360800D02*
X142392400Y-65430400D01*
X116230400Y-59410600D02*
X116611400Y-58902600D01*
X131521200Y-127990600D02*
X131267200Y-127660400D01*
X156362400Y-138125200D02*
X156413200Y-138709400D01*
X146964400Y-140716000D02*
X146685000Y-140411200D01*
X116611400Y-58902600D02*
X116865400Y-58547000D01*
X116230400Y-82905600D02*
X116281200Y-82169000D01*
X137718800Y-53619400D02*
X137261600Y-53035200D01*
X146380200Y-140030200D02*
X146050000Y-139649200D01*
X127152400Y-72059800D02*
X128473200Y-71272400D01*
X142392400Y-65430400D02*
X142367000Y-65049400D01*
X155422600Y-135991600D02*
X155829000Y-136626600D01*
X162915600Y-119989600D02*
X162737800Y-121767600D01*
X153238200Y-68834000D02*
X154762200Y-69418200D01*
X126796800Y-58115200D02*
X126923800Y-58216800D01*
X156235400Y-137617200D02*
X156362400Y-138125200D01*
X135509000Y-53314600D02*
X135686800Y-53187600D01*
X124333000Y-68732400D02*
X123698000Y-69037200D01*
X131724400Y-128244600D02*
X131521200Y-127990600D01*
X133248400Y-62890400D02*
X133502400Y-62966600D01*
X134137400Y-129387600D02*
X133604000Y-129311400D01*
X162280600Y-114630200D02*
X162636200Y-116255800D01*
X120269000Y-75717400D02*
X120726200Y-75438000D01*
X118110000Y-57454800D02*
X118516400Y-57175400D01*
X123698000Y-99593400D02*
X123317000Y-99161600D01*
X137261600Y-53035200D02*
X137109200Y-52882800D01*
X126288800Y-57683400D02*
X126796800Y-58115200D01*
X166776400Y-83667600D02*
X167157400Y-85064600D01*
X128752600Y-58039000D02*
X129209800Y-57708800D01*
X135813800Y-143002000D02*
X135610600Y-142697200D01*
X156083000Y-137134600D02*
X156235400Y-137617200D01*
X159410400Y-124612400D02*
X159004000Y-124485400D01*
X159842200Y-124637800D02*
X159410400Y-124612400D01*
X123545600Y-74244200D02*
X123926600Y-74168000D01*
X133604000Y-54635400D02*
X134264400Y-54178200D01*
X130683000Y-126695200D02*
X130429000Y-126085600D01*
X121742200Y-97180400D02*
X121386600Y-96596200D01*
X149987000Y-142570200D02*
X149580600Y-142443200D01*
X144399000Y-136956800D02*
X144373600Y-136550400D01*
X125374400Y-57099200D02*
X125526800Y-57175400D01*
X147396200Y-141122400D02*
X146964400Y-140716000D01*
X158038800Y-70993000D02*
X158521400Y-70967600D01*
X148539200Y-141986000D02*
X148209000Y-141757400D01*
X145516600Y-138760200D02*
X145313400Y-138353800D01*
X117144800Y-79248000D02*
X117221000Y-79121000D01*
X121716800Y-69418200D02*
X120929400Y-69418200D01*
X144856200Y-136550400D02*
X145034000Y-137464800D01*
X134493000Y-129438400D02*
X134366000Y-129413000D01*
X134289800Y-64795400D02*
X134188200Y-64084200D01*
X115290600Y-61976000D02*
X115392200Y-61391800D01*
X134315200Y-139268200D02*
X134264400Y-138455400D01*
X158140400Y-105587800D02*
X158826200Y-106553000D01*
X134264400Y-54178200D02*
X135102600Y-53594000D01*
X142062200Y-63881000D02*
X141909800Y-63398400D01*
X123317000Y-99161600D02*
X122682000Y-98425000D01*
X116941600Y-79705200D02*
X117144800Y-79248000D01*
X135153400Y-141935200D02*
X134924800Y-141478000D01*
X145516600Y-139979400D02*
X145592800Y-140462000D01*
X118719600Y-68783200D02*
X118160800Y-68427600D01*
X144449800Y-137236200D02*
X144399000Y-136956800D01*
X157835600Y-70942200D02*
X158038800Y-70993000D01*
X133502400Y-62966600D02*
X133731000Y-63169800D01*
X160553400Y-102336600D02*
X159232600Y-103098600D01*
X166954200Y-83362800D02*
X166776400Y-83667600D01*
X151155400Y-142798800D02*
X150571200Y-142697200D01*
X120929400Y-56286400D02*
X121666000Y-56261000D01*
X147828000Y-141478000D02*
X147396200Y-141122400D01*
X148336000Y-67564000D02*
X149326600Y-67741800D01*
X117830600Y-78130400D02*
X118414800Y-77368400D01*
X116586000Y-80645000D02*
X116789200Y-80060800D01*
X145288000Y-139217400D02*
X145415000Y-139598400D01*
X143052800Y-145440400D02*
X142748000Y-145542000D01*
X135610600Y-142697200D02*
X135331200Y-142240000D01*
X134366000Y-139700000D02*
X134315200Y-139268200D01*
X162356800Y-122859800D02*
X162026600Y-123418600D01*
X117627400Y-88138000D02*
X117449600Y-87858600D01*
X117830600Y-68224400D02*
X117221000Y-67716400D01*
X134391400Y-66954400D02*
X134366000Y-65913000D01*
X158521400Y-70967600D02*
X159207200Y-70967600D01*
X145643600Y-140970000D02*
X145643600Y-141554200D01*
X128219200Y-65532000D02*
X128422400Y-65201800D01*
X144907000Y-143840200D02*
X144754600Y-144043400D01*
X145491200Y-142468600D02*
X145415000Y-142748000D01*
X118440200Y-89154000D02*
X118211600Y-88900000D01*
X138404600Y-54813200D02*
X138099800Y-54254400D01*
X132588000Y-104876600D02*
X131927600Y-104622600D01*
X129667000Y-123113800D02*
X129489200Y-121818400D01*
X149225000Y-142290800D02*
X148539200Y-141986000D01*
X160909000Y-110667800D02*
X161137600Y-111201200D01*
X135331200Y-142240000D02*
X135153400Y-141935200D01*
X167817800Y-87858600D02*
X167868600Y-88849200D01*
X134874000Y-105511600D02*
X133350000Y-105105200D01*
X116738400Y-86334600D02*
X116535200Y-85750400D01*
X167563800Y-80822800D02*
X167436800Y-81788000D01*
X138099800Y-54254400D02*
X137718800Y-53619400D01*
X142189200Y-64363600D02*
X142062200Y-63881000D01*
X117221000Y-79121000D02*
X117703600Y-78282800D01*
X136956800Y-52755800D02*
X136829800Y-52705000D01*
X131902200Y-109169200D02*
X132435600Y-108280200D01*
X117297200Y-58140600D02*
X117627400Y-57810400D01*
X152222200Y-142824200D02*
X151739600Y-142824200D01*
X145592800Y-142087600D02*
X145491200Y-142468600D01*
X127812800Y-66167000D02*
X127965200Y-65963800D01*
X142748000Y-145542000D02*
X142290800Y-145669000D01*
X158419800Y-124231400D02*
X157886400Y-123825000D01*
X155829000Y-136626600D02*
X156083000Y-137134600D01*
X141960600Y-145719800D02*
X141427200Y-145770600D01*
X139877800Y-57912000D02*
X139496800Y-57023000D01*
X138480800Y-145237200D02*
X137871200Y-144881600D01*
X135686800Y-53187600D02*
X135966200Y-53009800D01*
X132994400Y-129184400D02*
X132588000Y-128981200D01*
X149580600Y-142443200D02*
X149225000Y-142290800D01*
X127228600Y-58547000D02*
X127558800Y-58928000D01*
X130378200Y-56896000D02*
X131165600Y-56337200D01*
X130149600Y-125298200D02*
X129895600Y-124485400D01*
X140284200Y-58851800D02*
X139877800Y-57912000D01*
X132969000Y-105003600D02*
X132588000Y-104876600D01*
X127965200Y-65963800D02*
X128219200Y-65532000D01*
X164668200Y-73228200D02*
X165481000Y-74041000D01*
X142290800Y-145669000D02*
X141960600Y-145719800D01*
X117017800Y-67538600D02*
X116357400Y-66700400D01*
X157683200Y-124333000D02*
X157480000Y-125501400D01*
X133096000Y-107416600D02*
X133629400Y-106781600D01*
X129438400Y-120726200D02*
X129438400Y-119684800D01*
X157124400Y-104343200D02*
X157276800Y-104521000D01*
X162026600Y-123418600D02*
X161569400Y-123952000D01*
X157276800Y-104521000D02*
X158140400Y-105587800D01*
X116001800Y-59817000D02*
X116230400Y-59410600D01*
X119532400Y-92379800D02*
X119329200Y-91643200D01*
X126669800Y-67310000D02*
X127381000Y-66725800D01*
X144373600Y-67310000D02*
X143611600Y-67310000D01*
X136194800Y-143535400D02*
X136042400Y-143306800D01*
X145288000Y-143103600D02*
X145135600Y-143433800D01*
X128574800Y-103098600D02*
X127685800Y-102590600D01*
X129209800Y-103428800D02*
X128574800Y-103098600D01*
X130632200Y-112090200D02*
X130937000Y-111277400D01*
X139522200Y-145618200D02*
X139141200Y-145491200D01*
X119329200Y-91643200D02*
X119202200Y-91008200D01*
X133350000Y-105105200D02*
X132969000Y-105003600D01*
X141630400Y-62560200D02*
X141224000Y-61341000D01*
X133604000Y-129311400D02*
X133299200Y-129286000D01*
X119303800Y-56769000D02*
X119837200Y-56540400D01*
X158826200Y-106553000D02*
X159410400Y-107518200D01*
X162661600Y-71856600D02*
X163703000Y-72466200D01*
X145770600Y-139217400D02*
X145516600Y-138760200D01*
X131927600Y-104622600D02*
X131318000Y-104394000D01*
X115417600Y-64643000D02*
X115341400Y-64262000D01*
X115392200Y-61391800D02*
X115519200Y-61010800D01*
X133299200Y-129286000D02*
X132994400Y-129184400D01*
X134493000Y-140335000D02*
X134366000Y-139700000D01*
X116382800Y-85140800D02*
X116281200Y-84404200D01*
X167259000Y-77266800D02*
X167309800Y-77470000D01*
X119202200Y-91008200D02*
X119075200Y-90271600D01*
X143433800Y-145237200D02*
X143052800Y-145440400D01*
X117932200Y-88544400D02*
X117627400Y-88138000D01*
X117703600Y-78282800D02*
X117830600Y-78130400D01*
X124815600Y-68453000D02*
X125272800Y-68097400D01*
X167157400Y-85064600D02*
X167665400Y-86944200D01*
X157505400Y-70764400D02*
X157708600Y-70891400D01*
X124510800Y-74066400D02*
X124739400Y-73914000D01*
X127685800Y-102590600D02*
X127304800Y-102387400D01*
X166751000Y-95123000D02*
X166217600Y-96139000D01*
X115239800Y-62636400D02*
X115290600Y-61976000D01*
X134239000Y-137007600D02*
X134493000Y-131572000D01*
X121386600Y-96596200D02*
X120954800Y-95910400D01*
X127304800Y-102387400D02*
X125526800Y-101219000D01*
X130429000Y-126085600D02*
X130149600Y-125298200D01*
X144475200Y-135483600D02*
X144500600Y-135229600D01*
X144627600Y-135102600D02*
X144805400Y-135102600D01*
X159969200Y-71043800D02*
X160578800Y-71145400D01*
X134670800Y-130175000D02*
X134645400Y-129768600D01*
X124739400Y-73914000D02*
X125349000Y-73406000D01*
X134366000Y-129413000D02*
X134137400Y-129387600D01*
X142367000Y-65049400D02*
X142290800Y-64668400D01*
X144830800Y-138099800D02*
X144602200Y-137591800D01*
X126923800Y-58216800D02*
X127228600Y-58547000D01*
X155854400Y-140944600D02*
X155498800Y-141427200D01*
X122326400Y-69392800D02*
X122021600Y-69418200D01*
X161569400Y-112344200D02*
X161747200Y-112801400D01*
X144805400Y-135102600D02*
X144830800Y-135991600D01*
X131089400Y-70027800D02*
X131394200Y-69900800D01*
X139496800Y-57023000D02*
X138836400Y-55651400D01*
X123799600Y-56413400D02*
X124282200Y-56591200D01*
X161036000Y-124333000D02*
X160401000Y-124561600D01*
X133273800Y-54864000D02*
X133604000Y-54635400D01*
X146685000Y-140411200D02*
X146380200Y-140030200D01*
X156184600Y-130378200D02*
X155473400Y-132537200D01*
X157480000Y-125501400D02*
X157149800Y-127101600D01*
X115900200Y-65887600D02*
X115824000Y-65760600D01*
X156210000Y-140284200D02*
X156083000Y-140589000D01*
X162890200Y-118338600D02*
X162915600Y-119989600D01*
X131394200Y-69900800D02*
X132283200Y-69545200D01*
X157149800Y-127101600D02*
X156743400Y-128676400D01*
X134366000Y-68656200D02*
X134264400Y-68834000D01*
X143611600Y-67310000D02*
X142824200Y-67335400D01*
X129489200Y-121818400D02*
X129438400Y-120726200D01*
X128600200Y-65024000D02*
X132664200Y-62966600D01*
X154863800Y-134188200D02*
X154609800Y-134772400D01*
X145211800Y-138963400D02*
X144830800Y-138099800D01*
X126212600Y-57632600D02*
X126288800Y-57683400D01*
X133629400Y-106781600D02*
X134366000Y-105994200D01*
X129463800Y-118491000D02*
X129565400Y-117398800D01*
X130860800Y-70129400D02*
X131089400Y-70027800D01*
X167259000Y-82524600D02*
X166954200Y-83362800D01*
X120040400Y-93929200D02*
X119710200Y-92887800D01*
X167614600Y-91948000D02*
X167386000Y-93116400D01*
X117017800Y-87020400D02*
X116738400Y-86334600D01*
X118618000Y-89357200D02*
X118440200Y-89154000D01*
X150901400Y-68122800D02*
X152476200Y-68580000D01*
X124333000Y-68732400D02*
X124815600Y-68453000D01*
X134645400Y-129768600D02*
X134620000Y-129641600D01*
X130937000Y-127152400D02*
X130683000Y-126695200D01*
X146050000Y-139649200D02*
X145770600Y-139217400D01*
X125907800Y-72923400D02*
X126339600Y-72618600D01*
X167767000Y-90779600D02*
X167614600Y-91948000D01*
X143738600Y-145059400D02*
X143433800Y-145237200D01*
X120599200Y-95224600D02*
X120040400Y-93929200D01*
X118160800Y-68427600D02*
X117830600Y-68224400D01*
X145415000Y-139598400D02*
X145516600Y-139979400D01*
X116357400Y-81457800D02*
X116586000Y-80645000D01*
X164820600Y-98348800D02*
X164007800Y-99364800D01*
X115443000Y-64719200D02*
X115417600Y-64643000D01*
X132435600Y-108280200D02*
X133096000Y-107416600D01*
X150571200Y-142697200D02*
X149987000Y-142570200D01*
X144526000Y-135153400D02*
X144551400Y-135128000D01*
X137109200Y-52882800D02*
X136956800Y-52755800D01*
X167309800Y-77470000D02*
X167538400Y-78486000D01*
X152730200Y-142773400D02*
X152222200Y-142824200D01*
X161874200Y-101371400D02*
X160553400Y-102336600D01*
X133731000Y-63169800D02*
X133985000Y-63576200D01*
X156743400Y-128676400D02*
X156184600Y-130378200D01*
X134493000Y-131572000D02*
X134620000Y-130505200D01*
X115824000Y-65760600D02*
X115443000Y-64719200D01*
X167817800Y-90119200D02*
X167767000Y-90779600D01*
X157886400Y-123825000D02*
X157607000Y-123571000D01*
X116357400Y-66700400D02*
X115900200Y-65887600D01*
X129794000Y-103733600D02*
X129209800Y-103428800D01*
X154813000Y-141960600D02*
X154355800Y-142265400D01*
X153212800Y-142697200D02*
X152730200Y-142773400D01*
X145643600Y-141554200D02*
X145592800Y-142087600D01*
X141427200Y-145770600D02*
X140843000Y-145770600D01*
X167868600Y-88849200D02*
X167817800Y-90119200D01*
X164007800Y-99364800D02*
X162737800Y-100634800D01*
X145440400Y-67310000D02*
X144373600Y-67310000D01*
X167640000Y-79400400D02*
X167614600Y-80213200D01*
X159410400Y-107518200D02*
X160248600Y-109220000D01*
X135966200Y-53009800D02*
X136347200Y-52781200D01*
X142824200Y-67335400D02*
X142392400Y-67360800D01*
X122682000Y-98425000D02*
X122123200Y-97713800D01*
X123367800Y-56311800D02*
X123799600Y-56413400D01*
X139903200Y-145719800D02*
X139522200Y-145618200D01*
X161747200Y-112801400D02*
X162280600Y-114630200D01*
X122123200Y-97713800D02*
X121742200Y-97180400D01*
X140843000Y-145770600D02*
X140335000Y-145770600D01*
X118770400Y-89509600D02*
X118618000Y-89357200D01*
X127558800Y-58928000D02*
X128066800Y-58547000D01*
X120497600Y-69392800D02*
X119761000Y-69240400D01*
X134264400Y-137871200D02*
X134239000Y-137007600D01*
X125349000Y-73406000D02*
X125907800Y-72923400D01*
X158394400Y-103555800D02*
X157276800Y-104114600D01*
X156413200Y-138709400D02*
X156413200Y-139217400D01*
X134366000Y-105994200D02*
X134874000Y-105511600D01*
X118897400Y-89662000D02*
X118770400Y-89509600D01*
X134721600Y-141020800D02*
X134493000Y-140335000D01*
X162636200Y-116255800D02*
X162839400Y-117398800D01*
X124282200Y-56591200D02*
X124739400Y-56769000D01*
X154762200Y-69418200D02*
X156184600Y-70053200D01*
X126339600Y-72618600D02*
X127152400Y-72059800D01*
X134620000Y-130505200D02*
X134670800Y-130175000D01*
X136042400Y-143306800D02*
X135813800Y-143002000D01*
X136347200Y-52781200D02*
X136550400Y-52705000D01*
X134366000Y-65913000D02*
X134289800Y-64795400D01*
X123342400Y-69189600D02*
X122986800Y-69291200D01*
X147421600Y-67462400D02*
X148336000Y-67564000D01*
X152476200Y-68580000D02*
X153238200Y-68834000D01*
X165481000Y-74041000D02*
X166116000Y-74879200D01*
X122555000Y-56261000D02*
X123367800Y-56311800D01*
X161569400Y-123952000D02*
X161036000Y-124333000D01*
X118872000Y-76911200D02*
X119278400Y-76479400D01*
X144068800Y-144780000D02*
X143738600Y-145059400D01*
X117449600Y-87858600D02*
X117017800Y-87020400D01*
X116281200Y-84404200D02*
X116230400Y-83566000D01*
X153847800Y-142494000D02*
X153212800Y-142697200D01*
X132969000Y-62890400D02*
X133248400Y-62890400D01*
X123698000Y-69037200D02*
X123342400Y-69189600D01*
X160248600Y-109220000D02*
X160909000Y-110667800D01*
X122021600Y-69418200D02*
X121716800Y-69418200D01*
X162483800Y-122504200D02*
X162356800Y-122859800D01*
X130937000Y-111277400D02*
X131318000Y-110286800D01*
X137464800Y-144602200D02*
X137058400Y-144348200D01*
X124307600Y-74117200D02*
X124510800Y-74066400D01*
X116230400Y-83566000D02*
X116230400Y-82905600D01*
X146177000Y-67360800D02*
X145440400Y-67310000D01*
X157099000Y-104267000D02*
X157124400Y-104343200D01*
X130327400Y-113182400D02*
X130632200Y-112090200D01*
X136829800Y-52705000D02*
X136702800Y-52679600D01*
X154355800Y-142265400D02*
X153847800Y-142494000D01*
X135102600Y-53594000D02*
X135509000Y-53314600D01*
X120929400Y-69418200D02*
X120497600Y-69392800D01*
X161417000Y-71348600D02*
X162661600Y-71856600D01*
X117627400Y-57810400D02*
X118110000Y-57454800D01*
X166243000Y-75057000D02*
X166801800Y-76098400D01*
X128066800Y-58547000D02*
X128371600Y-58318400D01*
X119278400Y-76479400D02*
X120269000Y-75717400D01*
X131267200Y-127660400D02*
X130937000Y-127152400D01*
X119761000Y-69240400D02*
X118719600Y-68783200D01*
X167665400Y-86944200D02*
X167817800Y-87858600D01*
X159232600Y-103098600D02*
X158394400Y-103555800D01*
X132308600Y-128778000D02*
X132003800Y-128524000D01*
X127381000Y-66725800D02*
X127812800Y-66167000D01*
X132003800Y-128524000D02*
X131724400Y-128244600D01*
X132842000Y-55168800D02*
X133273800Y-54864000D01*
X131165600Y-56337200D02*
X131927600Y-55803800D01*
X131318000Y-110286800D02*
X131902200Y-109169200D01*
X131927600Y-55803800D02*
X132842000Y-55168800D01*
X116865400Y-58547000D02*
X117297200Y-58140600D01*
M02*
