G04 #@! TF.GenerationSoftware,KiCad,Pcbnew,6.0.6-3a73a75311~116~ubuntu21.10.1*
G04 #@! TF.CreationDate,2023-05-20T20:22:18-06:00*
G04 #@! TF.ProjectId,reddit,72656464-6974-42e6-9b69-6361645f7063,rev?*
G04 #@! TF.SameCoordinates,Original*
G04 #@! TF.FileFunction,Soldermask,Bot*
G04 #@! TF.FilePolarity,Negative*
%FSLAX46Y46*%
G04 Gerber Fmt 4.6, Leading zero omitted, Abs format (unit mm)*
G04 Created by KiCad (PCBNEW 6.0.6-3a73a75311~116~ubuntu21.10.1) date 2023-05-20 20:22:18*
%MOMM*%
%LPD*%
G01*
G04 APERTURE LIST*
G04 Aperture macros list*
%AMRoundRect*
0 Rectangle with rounded corners*
0 $1 Rounding radius*
0 $2 $3 $4 $5 $6 $7 $8 $9 X,Y pos of 4 corners*
0 Add a 4 corners polygon primitive as box body*
4,1,4,$2,$3,$4,$5,$6,$7,$8,$9,$2,$3,0*
0 Add four circle primitives for the rounded corners*
1,1,$1+$1,$2,$3*
1,1,$1+$1,$4,$5*
1,1,$1+$1,$6,$7*
1,1,$1+$1,$8,$9*
0 Add four rect primitives between the rounded corners*
20,1,$1+$1,$2,$3,$4,$5,0*
20,1,$1+$1,$4,$5,$6,$7,0*
20,1,$1+$1,$6,$7,$8,$9,0*
20,1,$1+$1,$8,$9,$2,$3,0*%
G04 Aperture macros list end*
%ADD10C,0.100000*%
%ADD11C,3.200000*%
%ADD12R,5.100000X5.100000*%
%ADD13C,17.800000*%
%ADD14R,1.500000X2.600000*%
%ADD15RoundRect,0.250000X0.450000X-0.350000X0.450000X0.350000X-0.450000X0.350000X-0.450000X-0.350000X0*%
G04 APERTURE END LIST*
D10*
G36*
X140131800Y-83108800D02*
G01*
X140716000Y-83261200D01*
X141274800Y-83566000D01*
X141808200Y-83896200D01*
X142240000Y-84277200D01*
X142595600Y-84785200D01*
X142773400Y-85115400D01*
X142976600Y-85598000D01*
X143103600Y-86055200D01*
X143205200Y-86664800D01*
X143256000Y-87274400D01*
X143256000Y-87680800D01*
X143230600Y-88265000D01*
X143078200Y-88747600D01*
X142900400Y-89077800D01*
X142748000Y-89204800D01*
X142494000Y-89179400D01*
X142011400Y-89103200D01*
X141300200Y-88976200D01*
X140868400Y-88950800D01*
X140385800Y-88976200D01*
X139725400Y-89027000D01*
X139268200Y-89128600D01*
X138760200Y-89306400D01*
X138125200Y-89585800D01*
X137541000Y-89941400D01*
X137236200Y-90195400D01*
X136931400Y-90347800D01*
X136626600Y-90297000D01*
X136347200Y-89916000D01*
X135839200Y-89281000D01*
X135610600Y-88798400D01*
X135432800Y-88061800D01*
X135305800Y-87452200D01*
X135255000Y-87020400D01*
X135280400Y-86512400D01*
X135382000Y-86029800D01*
X135559800Y-85496400D01*
X135788400Y-85013800D01*
X136017000Y-84658200D01*
X136347200Y-84251800D01*
X136804400Y-83845400D01*
X137210800Y-83566000D01*
X137617200Y-83388200D01*
X138099800Y-83210400D01*
X138633200Y-83108800D01*
X139166600Y-83058000D01*
X139725400Y-83058000D01*
X140131800Y-83108800D01*
G37*
X140131800Y-83108800D02*
X140716000Y-83261200D01*
X141274800Y-83566000D01*
X141808200Y-83896200D01*
X142240000Y-84277200D01*
X142595600Y-84785200D01*
X142773400Y-85115400D01*
X142976600Y-85598000D01*
X143103600Y-86055200D01*
X143205200Y-86664800D01*
X143256000Y-87274400D01*
X143256000Y-87680800D01*
X143230600Y-88265000D01*
X143078200Y-88747600D01*
X142900400Y-89077800D01*
X142748000Y-89204800D01*
X142494000Y-89179400D01*
X142011400Y-89103200D01*
X141300200Y-88976200D01*
X140868400Y-88950800D01*
X140385800Y-88976200D01*
X139725400Y-89027000D01*
X139268200Y-89128600D01*
X138760200Y-89306400D01*
X138125200Y-89585800D01*
X137541000Y-89941400D01*
X137236200Y-90195400D01*
X136931400Y-90347800D01*
X136626600Y-90297000D01*
X136347200Y-89916000D01*
X135839200Y-89281000D01*
X135610600Y-88798400D01*
X135432800Y-88061800D01*
X135305800Y-87452200D01*
X135255000Y-87020400D01*
X135280400Y-86512400D01*
X135382000Y-86029800D01*
X135559800Y-85496400D01*
X135788400Y-85013800D01*
X136017000Y-84658200D01*
X136347200Y-84251800D01*
X136804400Y-83845400D01*
X137210800Y-83566000D01*
X137617200Y-83388200D01*
X138099800Y-83210400D01*
X138633200Y-83108800D01*
X139166600Y-83058000D01*
X139725400Y-83058000D01*
X140131800Y-83108800D01*
G36*
X160020000Y-80645000D02*
G01*
X160350200Y-80822800D01*
X160680400Y-81076800D01*
X161086800Y-81534000D01*
X161442400Y-82067400D01*
X161798000Y-82702400D01*
X162001200Y-83210400D01*
X162153600Y-83820000D01*
X162229800Y-84353400D01*
X162306000Y-85090000D01*
X162306000Y-85725000D01*
X162255200Y-86283800D01*
X162204400Y-86715600D01*
X161569400Y-86664800D01*
X161086800Y-86664800D01*
X160604200Y-86741000D01*
X160121600Y-86918800D01*
X159537400Y-87198200D01*
X159054800Y-87477600D01*
X158572200Y-86614000D01*
X158216600Y-85852000D01*
X157937200Y-85039200D01*
X157810200Y-84734400D01*
X157734000Y-83947000D01*
X157734000Y-83083400D01*
X157759400Y-82423000D01*
X157911800Y-81737200D01*
X158191200Y-81305400D01*
X158724600Y-80797400D01*
X159181800Y-80619600D01*
X159562800Y-80568800D01*
X160020000Y-80645000D01*
G37*
X160020000Y-80645000D02*
X160350200Y-80822800D01*
X160680400Y-81076800D01*
X161086800Y-81534000D01*
X161442400Y-82067400D01*
X161798000Y-82702400D01*
X162001200Y-83210400D01*
X162153600Y-83820000D01*
X162229800Y-84353400D01*
X162306000Y-85090000D01*
X162306000Y-85725000D01*
X162255200Y-86283800D01*
X162204400Y-86715600D01*
X161569400Y-86664800D01*
X161086800Y-86664800D01*
X160604200Y-86741000D01*
X160121600Y-86918800D01*
X159537400Y-87198200D01*
X159054800Y-87477600D01*
X158572200Y-86614000D01*
X158216600Y-85852000D01*
X157937200Y-85039200D01*
X157810200Y-84734400D01*
X157734000Y-83947000D01*
X157734000Y-83083400D01*
X157759400Y-82423000D01*
X157911800Y-81737200D01*
X158191200Y-81305400D01*
X158724600Y-80797400D01*
X159181800Y-80619600D01*
X159562800Y-80568800D01*
X160020000Y-80645000D01*
D11*
X135102600Y-59182000D03*
D12*
X144780000Y-104040000D03*
X144780000Y-129640000D03*
D13*
X144780000Y-116840000D03*
D14*
X136367200Y-86309200D03*
X141867200Y-86309200D03*
X157192400Y-83870800D03*
X162692400Y-83870800D03*
D15*
X144825000Y-94825000D03*
X144825000Y-92825000D03*
M02*
