G04 #@! TF.GenerationSoftware,KiCad,Pcbnew,6.0.6-3a73a75311~116~ubuntu21.10.1*
G04 #@! TF.CreationDate,2023-05-20T20:22:18-06:00*
G04 #@! TF.ProjectId,reddit,72656464-6974-42e6-9b69-6361645f7063,rev?*
G04 #@! TF.SameCoordinates,Original*
G04 #@! TF.FileFunction,Legend,Top*
G04 #@! TF.FilePolarity,Positive*
%FSLAX46Y46*%
G04 Gerber Fmt 4.6, Leading zero omitted, Abs format (unit mm)*
G04 Created by KiCad (PCBNEW 6.0.6-3a73a75311~116~ubuntu21.10.1) date 2023-05-20 20:22:18*
%MOMM*%
%LPD*%
G01*
G04 APERTURE LIST*
%ADD10C,0.300000*%
%ADD11C,0.150000*%
%ADD12C,0.010000*%
G04 APERTURE END LIST*
D10*
X139115800Y-106070400D02*
X149580600Y-111455200D01*
X149606000Y-111404400D02*
X151892000Y-105232200D01*
D11*
X148145714Y-124515619D02*
X148193333Y-124468000D01*
X148288571Y-124420380D01*
X148526666Y-124420380D01*
X148621904Y-124468000D01*
X148669523Y-124515619D01*
X148717142Y-124610857D01*
X148717142Y-124706095D01*
X148669523Y-124848952D01*
X148098095Y-125420380D01*
X148717142Y-125420380D01*
X149336190Y-124420380D02*
X149431428Y-124420380D01*
X149526666Y-124468000D01*
X149574285Y-124515619D01*
X149621904Y-124610857D01*
X149669523Y-124801333D01*
X149669523Y-125039428D01*
X149621904Y-125229904D01*
X149574285Y-125325142D01*
X149526666Y-125372761D01*
X149431428Y-125420380D01*
X149336190Y-125420380D01*
X149240952Y-125372761D01*
X149193333Y-125325142D01*
X149145714Y-125229904D01*
X149098095Y-125039428D01*
X149098095Y-124801333D01*
X149145714Y-124610857D01*
X149193333Y-124515619D01*
X149240952Y-124468000D01*
X149336190Y-124420380D01*
X150050476Y-124515619D02*
X150098095Y-124468000D01*
X150193333Y-124420380D01*
X150431428Y-124420380D01*
X150526666Y-124468000D01*
X150574285Y-124515619D01*
X150621904Y-124610857D01*
X150621904Y-124706095D01*
X150574285Y-124848952D01*
X150002857Y-125420380D01*
X150621904Y-125420380D01*
X150955238Y-124420380D02*
X151574285Y-124420380D01*
X151240952Y-124801333D01*
X151383809Y-124801333D01*
X151479047Y-124848952D01*
X151526666Y-124896571D01*
X151574285Y-124991809D01*
X151574285Y-125229904D01*
X151526666Y-125325142D01*
X151479047Y-125372761D01*
X151383809Y-125420380D01*
X151098095Y-125420380D01*
X151002857Y-125372761D01*
X150955238Y-125325142D01*
X146717142Y-123642380D02*
X146717142Y-122975714D01*
X146717142Y-123166190D02*
X146764761Y-123070952D01*
X146812380Y-123023333D01*
X146907619Y-122975714D01*
X147002857Y-122975714D01*
X148050476Y-122594761D02*
X147193333Y-123880476D01*
X148383809Y-123642380D02*
X148383809Y-122642380D01*
X148621904Y-122642380D01*
X148764761Y-122690000D01*
X148860000Y-122785238D01*
X148907619Y-122880476D01*
X148955238Y-123070952D01*
X148955238Y-123213809D01*
X148907619Y-123404285D01*
X148860000Y-123499523D01*
X148764761Y-123594761D01*
X148621904Y-123642380D01*
X148383809Y-123642380D01*
X149764761Y-123594761D02*
X149669523Y-123642380D01*
X149479047Y-123642380D01*
X149383809Y-123594761D01*
X149336190Y-123499523D01*
X149336190Y-123118571D01*
X149383809Y-123023333D01*
X149479047Y-122975714D01*
X149669523Y-122975714D01*
X149764761Y-123023333D01*
X149812380Y-123118571D01*
X149812380Y-123213809D01*
X149336190Y-123309047D01*
X150098095Y-122975714D02*
X150479047Y-122975714D01*
X150240952Y-123642380D02*
X150240952Y-122785238D01*
X150288571Y-122690000D01*
X150383809Y-122642380D01*
X150479047Y-122642380D01*
X151240952Y-123594761D02*
X151145714Y-123642380D01*
X150955238Y-123642380D01*
X150860000Y-123594761D01*
X150812380Y-123547142D01*
X150764761Y-123451904D01*
X150764761Y-123166190D01*
X150812380Y-123070952D01*
X150860000Y-123023333D01*
X150955238Y-122975714D01*
X151145714Y-122975714D01*
X151240952Y-123023333D01*
X151812380Y-123642380D02*
X151717142Y-123594761D01*
X151669523Y-123547142D01*
X151621904Y-123451904D01*
X151621904Y-123166190D01*
X151669523Y-123070952D01*
X151717142Y-123023333D01*
X151812380Y-122975714D01*
X151955238Y-122975714D01*
X152050476Y-123023333D01*
X152098095Y-123070952D01*
X152145714Y-123166190D01*
X152145714Y-123451904D01*
X152098095Y-123547142D01*
X152050476Y-123594761D01*
X151955238Y-123642380D01*
X151812380Y-123642380D01*
X152574285Y-122975714D02*
X152574285Y-123642380D01*
X152574285Y-123070952D02*
X152621904Y-123023333D01*
X152717142Y-122975714D01*
X152860000Y-122975714D01*
X152955238Y-123023333D01*
X153002857Y-123118571D01*
X153002857Y-123642380D01*
G36*
X159951718Y-80318564D02*
G01*
X160238601Y-80430376D01*
X160680122Y-80724807D01*
X161117420Y-81165161D01*
X161530593Y-81721669D01*
X161899739Y-82364564D01*
X162204956Y-83064079D01*
X162391196Y-83650016D01*
X162479694Y-84096787D01*
X162542366Y-84637830D01*
X162577764Y-85222719D01*
X162584441Y-85801026D01*
X162560947Y-86322323D01*
X162505834Y-86736184D01*
X162482619Y-86832931D01*
X162380025Y-87201793D01*
X161975767Y-87064049D01*
X161406098Y-86954560D01*
X160809349Y-87008006D01*
X160178044Y-87226234D01*
X159504705Y-87611090D01*
X159362748Y-87709348D01*
X159126138Y-87870082D01*
X158946817Y-87978058D01*
X158877678Y-88006823D01*
X158820696Y-87929862D01*
X158713669Y-87720558D01*
X158571700Y-87410487D01*
X158409894Y-87031222D01*
X158403048Y-87014635D01*
X158208993Y-86515420D01*
X158044644Y-86037981D01*
X157918130Y-85611833D01*
X157837582Y-85266487D01*
X157811128Y-85031456D01*
X157832735Y-84944228D01*
X157893127Y-84984917D01*
X157985563Y-85146951D01*
X158025837Y-85237854D01*
X158126348Y-85436548D01*
X158297838Y-85733931D01*
X158511332Y-86083359D01*
X158737857Y-86438185D01*
X158948439Y-86751762D01*
X159075870Y-86928377D01*
X159155596Y-86903157D01*
X159340098Y-86813103D01*
X159481832Y-86736963D01*
X160105092Y-86460810D01*
X160749339Y-86298116D01*
X161356200Y-86262975D01*
X161423940Y-86268017D01*
X161932156Y-86314100D01*
X161995473Y-85815821D01*
X162016632Y-85320271D01*
X161977425Y-84724185D01*
X161885674Y-84089704D01*
X161749201Y-83478966D01*
X161666295Y-83200875D01*
X161491252Y-82769902D01*
X161249094Y-82307278D01*
X160968133Y-81856518D01*
X160676680Y-81461134D01*
X160403048Y-81164639D01*
X160274970Y-81062497D01*
X159981283Y-80899713D01*
X159668348Y-80771064D01*
X159641450Y-80762671D01*
X159420339Y-80713043D01*
X159229773Y-80728719D01*
X158992694Y-80820986D01*
X158884239Y-80873575D01*
X158472870Y-81174681D01*
X158147012Y-81621058D01*
X157910742Y-82201510D01*
X157768136Y-82904843D01*
X157723269Y-83719862D01*
X157731840Y-84038722D01*
X157748727Y-84422659D01*
X157752899Y-84650968D01*
X157740515Y-84744187D01*
X157707735Y-84722855D01*
X157650719Y-84607509D01*
X157632900Y-84567889D01*
X157556918Y-84289460D01*
X157507292Y-83885166D01*
X157483749Y-83403507D01*
X157486016Y-82892986D01*
X157513821Y-82402104D01*
X157566891Y-81979363D01*
X157644953Y-81673264D01*
X157649233Y-81662558D01*
X157905995Y-81151544D01*
X158223842Y-80757056D01*
X158527878Y-80503102D01*
X158951769Y-80299962D01*
X159440793Y-80237837D01*
X159951718Y-80318564D01*
G37*
D12*
X159951718Y-80318564D02*
X160238601Y-80430376D01*
X160680122Y-80724807D01*
X161117420Y-81165161D01*
X161530593Y-81721669D01*
X161899739Y-82364564D01*
X162204956Y-83064079D01*
X162391196Y-83650016D01*
X162479694Y-84096787D01*
X162542366Y-84637830D01*
X162577764Y-85222719D01*
X162584441Y-85801026D01*
X162560947Y-86322323D01*
X162505834Y-86736184D01*
X162482619Y-86832931D01*
X162380025Y-87201793D01*
X161975767Y-87064049D01*
X161406098Y-86954560D01*
X160809349Y-87008006D01*
X160178044Y-87226234D01*
X159504705Y-87611090D01*
X159362748Y-87709348D01*
X159126138Y-87870082D01*
X158946817Y-87978058D01*
X158877678Y-88006823D01*
X158820696Y-87929862D01*
X158713669Y-87720558D01*
X158571700Y-87410487D01*
X158409894Y-87031222D01*
X158403048Y-87014635D01*
X158208993Y-86515420D01*
X158044644Y-86037981D01*
X157918130Y-85611833D01*
X157837582Y-85266487D01*
X157811128Y-85031456D01*
X157832735Y-84944228D01*
X157893127Y-84984917D01*
X157985563Y-85146951D01*
X158025837Y-85237854D01*
X158126348Y-85436548D01*
X158297838Y-85733931D01*
X158511332Y-86083359D01*
X158737857Y-86438185D01*
X158948439Y-86751762D01*
X159075870Y-86928377D01*
X159155596Y-86903157D01*
X159340098Y-86813103D01*
X159481832Y-86736963D01*
X160105092Y-86460810D01*
X160749339Y-86298116D01*
X161356200Y-86262975D01*
X161423940Y-86268017D01*
X161932156Y-86314100D01*
X161995473Y-85815821D01*
X162016632Y-85320271D01*
X161977425Y-84724185D01*
X161885674Y-84089704D01*
X161749201Y-83478966D01*
X161666295Y-83200875D01*
X161491252Y-82769902D01*
X161249094Y-82307278D01*
X160968133Y-81856518D01*
X160676680Y-81461134D01*
X160403048Y-81164639D01*
X160274970Y-81062497D01*
X159981283Y-80899713D01*
X159668348Y-80771064D01*
X159641450Y-80762671D01*
X159420339Y-80713043D01*
X159229773Y-80728719D01*
X158992694Y-80820986D01*
X158884239Y-80873575D01*
X158472870Y-81174681D01*
X158147012Y-81621058D01*
X157910742Y-82201510D01*
X157768136Y-82904843D01*
X157723269Y-83719862D01*
X157731840Y-84038722D01*
X157748727Y-84422659D01*
X157752899Y-84650968D01*
X157740515Y-84744187D01*
X157707735Y-84722855D01*
X157650719Y-84607509D01*
X157632900Y-84567889D01*
X157556918Y-84289460D01*
X157507292Y-83885166D01*
X157483749Y-83403507D01*
X157486016Y-82892986D01*
X157513821Y-82402104D01*
X157566891Y-81979363D01*
X157644953Y-81673264D01*
X157649233Y-81662558D01*
X157905995Y-81151544D01*
X158223842Y-80757056D01*
X158527878Y-80503102D01*
X158951769Y-80299962D01*
X159440793Y-80237837D01*
X159951718Y-80318564D01*
G36*
X139837682Y-82735793D02*
G01*
X140611158Y-82923144D01*
X141347302Y-83258902D01*
X141762151Y-83533861D01*
X142231548Y-83930080D01*
X142609476Y-84357537D01*
X142939141Y-84870506D01*
X143147018Y-85273444D01*
X143465903Y-85934903D01*
X143465903Y-87213722D01*
X143464230Y-87719081D01*
X143455776Y-88085185D01*
X143435389Y-88349160D01*
X143397917Y-88548132D01*
X143338207Y-88719226D01*
X143251107Y-88899571D01*
X143225046Y-88949321D01*
X143080304Y-89205740D01*
X142956279Y-89394216D01*
X142896271Y-89460436D01*
X142768684Y-89467104D01*
X142534139Y-89426390D01*
X142343379Y-89376069D01*
X141486677Y-89206728D01*
X140583547Y-89187554D01*
X139917273Y-89270772D01*
X139176011Y-89465055D01*
X138454924Y-89770563D01*
X137712623Y-90206288D01*
X137384056Y-90433063D01*
X137088307Y-90642817D01*
X136850515Y-90806884D01*
X136703876Y-90902595D01*
X136674028Y-90917889D01*
X136610459Y-90851425D01*
X136472641Y-90675183D01*
X136287479Y-90423891D01*
X136239702Y-90357277D01*
X135839855Y-89730308D01*
X135515767Y-89087753D01*
X135291300Y-88480323D01*
X135221549Y-88193490D01*
X135157225Y-87786142D01*
X135134689Y-87478307D01*
X135153985Y-87293495D01*
X135215160Y-87255217D01*
X135219723Y-87257819D01*
X135290778Y-87380743D01*
X135307987Y-87505559D01*
X135352247Y-87730272D01*
X135472222Y-88033833D01*
X135648888Y-88386681D01*
X135863225Y-88759255D01*
X136096210Y-89121992D01*
X136328821Y-89445332D01*
X136542038Y-89699712D01*
X136716838Y-89855570D01*
X136834199Y-89883346D01*
X136836938Y-89881696D01*
X136960556Y-89801261D01*
X137181573Y-89656949D01*
X137424584Y-89498031D01*
X138264896Y-89048597D01*
X139185904Y-88735232D01*
X140152108Y-88563096D01*
X141128010Y-88537348D01*
X142078111Y-88663146D01*
X142469130Y-88764890D01*
X142626005Y-88729948D01*
X142760955Y-88535910D01*
X142867648Y-88199378D01*
X142939755Y-87736954D01*
X142960100Y-87477303D01*
X142941527Y-86593241D01*
X142776894Y-85803055D01*
X142462651Y-85096681D01*
X141995245Y-84464052D01*
X141840219Y-84302493D01*
X141196787Y-83781306D01*
X140491066Y-83416365D01*
X139743678Y-83208226D01*
X138975244Y-83157447D01*
X138206385Y-83264585D01*
X137457724Y-83530197D01*
X136749881Y-83954840D01*
X136495788Y-84158109D01*
X136174248Y-84501406D01*
X135863960Y-84949004D01*
X135589504Y-85452073D01*
X135375458Y-85961786D01*
X135246404Y-86429314D01*
X135219723Y-86693040D01*
X135187692Y-86893994D01*
X135121549Y-86999404D01*
X135070937Y-86978878D01*
X135058377Y-86819489D01*
X135082588Y-86504419D01*
X135083324Y-86497491D01*
X135195489Y-85790241D01*
X135378205Y-85192998D01*
X135650744Y-84646997D01*
X135733941Y-84513521D01*
X136236001Y-83890945D01*
X136842274Y-83393773D01*
X137529170Y-83025838D01*
X138273097Y-82790974D01*
X139050465Y-82693014D01*
X139837682Y-82735793D01*
G37*
X139837682Y-82735793D02*
X140611158Y-82923144D01*
X141347302Y-83258902D01*
X141762151Y-83533861D01*
X142231548Y-83930080D01*
X142609476Y-84357537D01*
X142939141Y-84870506D01*
X143147018Y-85273444D01*
X143465903Y-85934903D01*
X143465903Y-87213722D01*
X143464230Y-87719081D01*
X143455776Y-88085185D01*
X143435389Y-88349160D01*
X143397917Y-88548132D01*
X143338207Y-88719226D01*
X143251107Y-88899571D01*
X143225046Y-88949321D01*
X143080304Y-89205740D01*
X142956279Y-89394216D01*
X142896271Y-89460436D01*
X142768684Y-89467104D01*
X142534139Y-89426390D01*
X142343379Y-89376069D01*
X141486677Y-89206728D01*
X140583547Y-89187554D01*
X139917273Y-89270772D01*
X139176011Y-89465055D01*
X138454924Y-89770563D01*
X137712623Y-90206288D01*
X137384056Y-90433063D01*
X137088307Y-90642817D01*
X136850515Y-90806884D01*
X136703876Y-90902595D01*
X136674028Y-90917889D01*
X136610459Y-90851425D01*
X136472641Y-90675183D01*
X136287479Y-90423891D01*
X136239702Y-90357277D01*
X135839855Y-89730308D01*
X135515767Y-89087753D01*
X135291300Y-88480323D01*
X135221549Y-88193490D01*
X135157225Y-87786142D01*
X135134689Y-87478307D01*
X135153985Y-87293495D01*
X135215160Y-87255217D01*
X135219723Y-87257819D01*
X135290778Y-87380743D01*
X135307987Y-87505559D01*
X135352247Y-87730272D01*
X135472222Y-88033833D01*
X135648888Y-88386681D01*
X135863225Y-88759255D01*
X136096210Y-89121992D01*
X136328821Y-89445332D01*
X136542038Y-89699712D01*
X136716838Y-89855570D01*
X136834199Y-89883346D01*
X136836938Y-89881696D01*
X136960556Y-89801261D01*
X137181573Y-89656949D01*
X137424584Y-89498031D01*
X138264896Y-89048597D01*
X139185904Y-88735232D01*
X140152108Y-88563096D01*
X141128010Y-88537348D01*
X142078111Y-88663146D01*
X142469130Y-88764890D01*
X142626005Y-88729948D01*
X142760955Y-88535910D01*
X142867648Y-88199378D01*
X142939755Y-87736954D01*
X142960100Y-87477303D01*
X142941527Y-86593241D01*
X142776894Y-85803055D01*
X142462651Y-85096681D01*
X141995245Y-84464052D01*
X141840219Y-84302493D01*
X141196787Y-83781306D01*
X140491066Y-83416365D01*
X139743678Y-83208226D01*
X138975244Y-83157447D01*
X138206385Y-83264585D01*
X137457724Y-83530197D01*
X136749881Y-83954840D01*
X136495788Y-84158109D01*
X136174248Y-84501406D01*
X135863960Y-84949004D01*
X135589504Y-85452073D01*
X135375458Y-85961786D01*
X135246404Y-86429314D01*
X135219723Y-86693040D01*
X135187692Y-86893994D01*
X135121549Y-86999404D01*
X135070937Y-86978878D01*
X135058377Y-86819489D01*
X135082588Y-86504419D01*
X135083324Y-86497491D01*
X135195489Y-85790241D01*
X135378205Y-85192998D01*
X135650744Y-84646997D01*
X135733941Y-84513521D01*
X136236001Y-83890945D01*
X136842274Y-83393773D01*
X137529170Y-83025838D01*
X138273097Y-82790974D01*
X139050465Y-82693014D01*
X139837682Y-82735793D01*
G36*
X144669282Y-135015111D02*
G01*
X144535292Y-135023526D01*
X144455127Y-135074744D01*
X144408626Y-135207723D01*
X144375632Y-135461420D01*
X144361228Y-135610423D01*
X144313969Y-136175339D01*
X144298698Y-136613075D01*
X144322617Y-136971091D01*
X144392930Y-137296844D01*
X144516837Y-137637795D01*
X144701543Y-138041402D01*
X144743169Y-138127170D01*
X145147396Y-139069333D01*
X145406415Y-139948987D01*
X145527243Y-140792729D01*
X145538473Y-141140203D01*
X145464191Y-142082120D01*
X145245869Y-142935697D01*
X144890292Y-143691812D01*
X144404244Y-144341344D01*
X143794509Y-144875171D01*
X143067872Y-145284171D01*
X142256006Y-145553419D01*
X141831338Y-145622688D01*
X141312500Y-145662997D01*
X140778155Y-145671623D01*
X140306965Y-145645839D01*
X140158612Y-145626086D01*
X139712198Y-145519744D01*
X139181545Y-145343480D01*
X138631743Y-145121255D01*
X138136548Y-144881687D01*
X137247854Y-144306068D01*
X136457499Y-143587633D01*
X135773431Y-142735031D01*
X135203601Y-141756916D01*
X135135937Y-141615894D01*
X134870696Y-141015186D01*
X134674549Y-140475701D01*
X134536428Y-139947590D01*
X134445261Y-139381005D01*
X134389979Y-138726096D01*
X134365379Y-138146014D01*
X134359125Y-137665016D01*
X134364143Y-137048904D01*
X134379087Y-136328661D01*
X134402610Y-135535270D01*
X134433367Y-134699714D01*
X134470011Y-133852977D01*
X134511196Y-133026041D01*
X134555576Y-132249889D01*
X134601805Y-131555505D01*
X134648537Y-130973871D01*
X134694425Y-130535972D01*
X134696830Y-130517194D01*
X134744502Y-130024828D01*
X134738771Y-129685932D01*
X134704829Y-129536723D01*
X134647589Y-129420079D01*
X134559296Y-129347646D01*
X134398733Y-129305154D01*
X134124683Y-129278334D01*
X133922113Y-129265756D01*
X133351031Y-129188757D01*
X132851808Y-129015525D01*
X132383384Y-128724913D01*
X131904698Y-128295775D01*
X131774006Y-128159448D01*
X131284790Y-127531170D01*
X130840668Y-126746206D01*
X130448029Y-125819960D01*
X130113262Y-124767834D01*
X129842755Y-123605232D01*
X129807249Y-123417542D01*
X129612933Y-121995451D01*
X129527258Y-120469700D01*
X129528784Y-120349256D01*
X130555628Y-120349256D01*
X130594543Y-121131532D01*
X130637810Y-121622259D01*
X130800292Y-122845391D01*
X131028707Y-123978689D01*
X131317671Y-125005804D01*
X131661804Y-125910387D01*
X132055722Y-126676089D01*
X132494045Y-127286561D01*
X132507352Y-127301769D01*
X132949230Y-127705819D01*
X133433247Y-127977709D01*
X133930967Y-128108932D01*
X134413957Y-128090984D01*
X134752006Y-127973200D01*
X135174878Y-127663376D01*
X135563055Y-127186544D01*
X135914234Y-126549083D01*
X136226117Y-125757374D01*
X136496403Y-124817797D01*
X136722793Y-123736730D01*
X136902986Y-122520555D01*
X136982564Y-121785944D01*
X137145051Y-120303155D01*
X137338830Y-118963741D01*
X137570928Y-117736366D01*
X137848371Y-116589694D01*
X138178184Y-115492390D01*
X138567393Y-114413116D01*
X138722633Y-114024833D01*
X138884435Y-113654291D01*
X139080240Y-113243240D01*
X139294746Y-112819489D01*
X139512653Y-112410847D01*
X139718662Y-112045122D01*
X139897471Y-111750123D01*
X140033781Y-111553660D01*
X140112291Y-111483541D01*
X140119181Y-111486560D01*
X140107531Y-111576643D01*
X140055740Y-111800132D01*
X139972635Y-112120978D01*
X139891134Y-112417839D01*
X139725194Y-113040065D01*
X139571293Y-113686916D01*
X139426348Y-114377281D01*
X139287275Y-115130044D01*
X139150989Y-115964093D01*
X139014407Y-116898315D01*
X138874444Y-117951596D01*
X138728016Y-119142823D01*
X138572040Y-120490883D01*
X138570207Y-120507125D01*
X138367409Y-122082848D01*
X138133072Y-123489022D01*
X137865599Y-124729928D01*
X137563396Y-125809846D01*
X137224869Y-126733054D01*
X136848422Y-127503834D01*
X136432461Y-128126465D01*
X135975390Y-128605227D01*
X135475616Y-128944400D01*
X135415004Y-128974808D01*
X135188869Y-129108153D01*
X135042634Y-129238985D01*
X135019055Y-129282472D01*
X135014041Y-129404085D01*
X135017820Y-129676340D01*
X135029547Y-130073753D01*
X135048375Y-130570838D01*
X135073457Y-131142114D01*
X135096658Y-131619625D01*
X135130654Y-132376313D01*
X135161041Y-133213190D01*
X135186092Y-134069596D01*
X135204079Y-134884872D01*
X135213274Y-135598357D01*
X135213954Y-135738198D01*
X135232868Y-136902394D01*
X135285820Y-137915723D01*
X135378408Y-138801403D01*
X135516229Y-139582646D01*
X135704881Y-140282669D01*
X135949959Y-140924687D01*
X136257063Y-141531914D01*
X136631787Y-142127566D01*
X136817525Y-142389229D01*
X137325585Y-142961017D01*
X137960878Y-143485237D01*
X138674975Y-143930296D01*
X139419446Y-144264600D01*
X139919474Y-144412803D01*
X140527990Y-144494722D01*
X141192622Y-144490553D01*
X141836900Y-144404735D01*
X142301648Y-144274586D01*
X142647428Y-144107076D01*
X143013984Y-143871738D01*
X143229174Y-143700119D01*
X143600569Y-143301479D01*
X143859454Y-142858563D01*
X144021580Y-142333228D01*
X144102702Y-141687331D01*
X144109271Y-141569101D01*
X144118062Y-141206718D01*
X144102478Y-140873515D01*
X144055022Y-140537995D01*
X143968199Y-140168664D01*
X143834512Y-139734023D01*
X143646465Y-139202576D01*
X143396563Y-138542827D01*
X143376939Y-138492007D01*
X142991890Y-137495737D01*
X143240006Y-136586153D01*
X143458090Y-135856234D01*
X143678268Y-135271818D01*
X143914595Y-134802425D01*
X144181129Y-134417576D01*
X144307329Y-134271791D01*
X144556227Y-134019502D01*
X144717283Y-133894520D01*
X144783329Y-133899436D01*
X144747198Y-134036842D01*
X144702890Y-134128787D01*
X144610813Y-134320053D01*
X144568618Y-134433761D01*
X144568334Y-134437467D01*
X144649048Y-134484502D01*
X144870864Y-134495155D01*
X145203293Y-134473905D01*
X145615846Y-134425232D01*
X146078034Y-134353615D01*
X146559369Y-134263532D01*
X147029360Y-134159462D01*
X147457519Y-134045885D01*
X147655139Y-133984008D01*
X148178097Y-133782074D01*
X148792304Y-133502434D01*
X149446878Y-133171844D01*
X150090935Y-132817056D01*
X150673594Y-132464824D01*
X151108980Y-132168018D01*
X152161740Y-131300650D01*
X153193631Y-130276232D01*
X154189046Y-129114023D01*
X155132378Y-127833283D01*
X156008023Y-126453272D01*
X156591524Y-125401917D01*
X156875561Y-124830735D01*
X157099761Y-124304588D01*
X157275950Y-123781291D01*
X157415958Y-123218657D01*
X157531610Y-122574503D01*
X157634735Y-121806643D01*
X157659795Y-121591724D01*
X157766428Y-120192243D01*
X157783833Y-118688921D01*
X157713535Y-117129170D01*
X157557058Y-115560401D01*
X157439396Y-114739557D01*
X157159135Y-113348629D01*
X156753143Y-111879903D01*
X156232710Y-110366661D01*
X155609121Y-108842188D01*
X155003004Y-107555641D01*
X154779750Y-107133068D01*
X154530076Y-106697754D01*
X154272116Y-106277246D01*
X154024004Y-105899092D01*
X153803877Y-105590841D01*
X153629867Y-105380038D01*
X153520111Y-105294233D01*
X153513887Y-105293583D01*
X153387526Y-105311414D01*
X153127404Y-105359910D01*
X152771974Y-105431576D01*
X152376740Y-105515227D01*
X151704760Y-105651315D01*
X150909235Y-105797611D01*
X150042024Y-105945744D01*
X149154991Y-106087343D01*
X148299997Y-106214036D01*
X147528903Y-106317453D01*
X147081876Y-106369894D01*
X146633317Y-106406283D01*
X146033930Y-106436185D01*
X145309180Y-106458862D01*
X144484532Y-106473579D01*
X143585454Y-106479598D01*
X143289514Y-106479573D01*
X142341073Y-106474578D01*
X141532464Y-106460983D01*
X140827212Y-106435625D01*
X140188845Y-106395344D01*
X139580889Y-106336979D01*
X138966870Y-106257371D01*
X138310315Y-106153357D01*
X137574750Y-106021777D01*
X137206817Y-105952458D01*
X136767522Y-105870888D01*
X136381912Y-105803220D01*
X136087759Y-105755804D01*
X135922833Y-105734992D01*
X135910891Y-105734555D01*
X135773457Y-105798866D01*
X135547668Y-105975751D01*
X135256707Y-106241141D01*
X134923761Y-106570966D01*
X134572015Y-106941158D01*
X134224654Y-107327647D01*
X133904863Y-107706363D01*
X133635828Y-108053237D01*
X133524214Y-108212247D01*
X132887535Y-109264269D01*
X132334275Y-110397956D01*
X131860134Y-111627618D01*
X131460811Y-112967564D01*
X131132006Y-114432103D01*
X130869418Y-116035543D01*
X130679615Y-117677019D01*
X130597632Y-118672243D01*
X130556480Y-119546241D01*
X130555628Y-120349256D01*
X129528784Y-120349256D01*
X129547486Y-118873402D01*
X129670878Y-117239673D01*
X129894693Y-115601625D01*
X130216194Y-113992373D01*
X130632641Y-112445032D01*
X130743831Y-112094452D01*
X131285846Y-110641806D01*
X131919519Y-109328480D01*
X132654994Y-108137372D01*
X133502415Y-107051377D01*
X134134799Y-106377096D01*
X135041340Y-105476234D01*
X134667510Y-105379509D01*
X133144697Y-104934113D01*
X131628067Y-104391844D01*
X130142669Y-103765612D01*
X128713551Y-103068326D01*
X127365763Y-102312898D01*
X126124354Y-101512236D01*
X125014373Y-100679253D01*
X124251237Y-100010950D01*
X123886789Y-99643762D01*
X123458361Y-99176738D01*
X123003196Y-98653762D01*
X122558534Y-98118718D01*
X122161618Y-97615490D01*
X121849689Y-97187962D01*
X121826058Y-97153218D01*
X121162454Y-96068668D01*
X120560348Y-94885053D01*
X120037114Y-93646218D01*
X119610125Y-92396006D01*
X119296755Y-91178261D01*
X119163571Y-90434268D01*
X119108053Y-90084105D01*
X119044060Y-89839362D01*
X118942081Y-89639890D01*
X118772610Y-89425537D01*
X118549439Y-89182421D01*
X118137606Y-88719230D01*
X117802683Y-88281571D01*
X117505922Y-87811817D01*
X117208573Y-87252336D01*
X117093709Y-87017419D01*
X116793346Y-86345893D01*
X116575542Y-85732811D01*
X116429130Y-85126203D01*
X116342945Y-84474097D01*
X116305821Y-83724522D01*
X116302144Y-83333167D01*
X117289081Y-83333167D01*
X117359742Y-84422441D01*
X117574678Y-85500178D01*
X117922296Y-86538286D01*
X118391001Y-87508673D01*
X118969198Y-88383248D01*
X119645293Y-89133919D01*
X119706877Y-89191087D01*
X120477770Y-89827358D01*
X121277688Y-90342202D01*
X122142047Y-90752672D01*
X123106262Y-91075818D01*
X124107223Y-91309716D01*
X125121459Y-91508224D01*
X124688085Y-91578015D01*
X124244006Y-91612520D01*
X123690701Y-91600228D01*
X123087593Y-91546013D01*
X122494105Y-91454755D01*
X122090711Y-91364846D01*
X121706388Y-91243589D01*
X121248172Y-91068591D01*
X120796589Y-90871354D01*
X120657551Y-90804168D01*
X120328701Y-90646705D01*
X120067787Y-90534118D01*
X119907944Y-90479974D01*
X119873889Y-90483328D01*
X119894781Y-90591391D01*
X119951686Y-90834260D01*
X120035950Y-91176100D01*
X120138919Y-91581077D01*
X120140480Y-91587134D01*
X120639653Y-93181380D01*
X121293384Y-94697645D01*
X122096849Y-96126296D01*
X123045223Y-97457702D01*
X123140885Y-97576569D01*
X123602622Y-98105293D01*
X124166465Y-98689792D01*
X124788589Y-99288947D01*
X125425173Y-99861636D01*
X126032393Y-100366737D01*
X126451746Y-100683292D01*
X127759636Y-101528758D01*
X129213337Y-102313691D01*
X130790387Y-103030449D01*
X132468323Y-103671392D01*
X134224685Y-104228877D01*
X136037010Y-104695266D01*
X137882837Y-105062915D01*
X139739705Y-105324184D01*
X140246806Y-105376134D01*
X140788516Y-105412315D01*
X141471660Y-105434917D01*
X142261866Y-105444659D01*
X143124758Y-105442260D01*
X144025964Y-105428437D01*
X144931109Y-105403909D01*
X145805820Y-105369395D01*
X146615723Y-105325614D01*
X147326444Y-105273283D01*
X147875626Y-105216659D01*
X148907040Y-105065401D01*
X154292118Y-105065401D01*
X154323839Y-105146290D01*
X154427777Y-105348091D01*
X154587207Y-105639393D01*
X154763959Y-105951506D01*
X155567153Y-107501702D01*
X156273744Y-109179826D01*
X156875823Y-110961336D01*
X157365483Y-112821693D01*
X157734816Y-114736357D01*
X157848682Y-115524139D01*
X157898188Y-116013765D01*
X157937768Y-116625198D01*
X157967020Y-117320727D01*
X157985543Y-118062641D01*
X157992937Y-118813229D01*
X157988799Y-119534780D01*
X157972729Y-120189583D01*
X157944326Y-120739927D01*
X157908140Y-121112873D01*
X157826519Y-121718622D01*
X158152406Y-122130900D01*
X158666800Y-122691709D01*
X159195936Y-123087497D01*
X159429098Y-123208755D01*
X159736319Y-123330489D01*
X159973499Y-123361816D01*
X160219979Y-123306132D01*
X160366417Y-123248854D01*
X160770674Y-122986012D01*
X161113214Y-122561266D01*
X161395128Y-121972981D01*
X161555600Y-121468146D01*
X161615936Y-121210842D01*
X161659739Y-120933588D01*
X161689252Y-120603630D01*
X161706719Y-120188216D01*
X161714382Y-119654591D01*
X161715007Y-119140111D01*
X161693872Y-118158527D01*
X161630754Y-117235948D01*
X161519086Y-116342513D01*
X161352303Y-115448362D01*
X161123840Y-114523634D01*
X160827128Y-113538467D01*
X160455604Y-112463002D01*
X160002700Y-111267377D01*
X159959950Y-111158514D01*
X159504071Y-110075662D01*
X158994756Y-108998787D01*
X158448505Y-107956766D01*
X157881821Y-106978471D01*
X157311206Y-106092778D01*
X156753162Y-105328560D01*
X156361617Y-104862218D01*
X156028165Y-104493296D01*
X155171911Y-104767579D01*
X154812254Y-104884257D01*
X154522135Y-104981157D01*
X154338140Y-105045894D01*
X154292118Y-105065401D01*
X148907040Y-105065401D01*
X150034390Y-104900074D01*
X152038668Y-104507890D01*
X153894146Y-104038383D01*
X155606513Y-103489830D01*
X157181453Y-102860507D01*
X158624655Y-102148692D01*
X159319219Y-101748848D01*
X159926966Y-101369454D01*
X160446114Y-101016575D01*
X160919993Y-100655864D01*
X161391935Y-100252973D01*
X161905271Y-99773553D01*
X162301857Y-99384555D01*
X163271578Y-98358922D01*
X164087468Y-97354872D01*
X164765027Y-96344596D01*
X165319758Y-95300287D01*
X165767161Y-94194134D01*
X166122738Y-92998330D01*
X166302187Y-92208007D01*
X166498563Y-91135012D01*
X166620232Y-90196765D01*
X166669213Y-89369186D01*
X166647521Y-88628197D01*
X166622995Y-88379644D01*
X166493070Y-87550379D01*
X166290213Y-86611508D01*
X166023700Y-85587700D01*
X165702803Y-84503624D01*
X165336798Y-83383948D01*
X164934959Y-82253341D01*
X164506560Y-81136471D01*
X164060875Y-80058005D01*
X163607180Y-79042614D01*
X163154748Y-78114964D01*
X162712854Y-77299725D01*
X162290772Y-76621564D01*
X162104145Y-76360208D01*
X161503531Y-75646119D01*
X160765096Y-74904171D01*
X159919515Y-74158679D01*
X158997461Y-73433958D01*
X158029611Y-72754324D01*
X157046639Y-72144092D01*
X156752788Y-71985126D01*
X159326560Y-71985126D01*
X159379249Y-72044766D01*
X159542937Y-72176806D01*
X159783285Y-72353694D01*
X159805486Y-72369445D01*
X160533114Y-72931099D01*
X161278937Y-73591349D01*
X162006115Y-74312185D01*
X162677812Y-75055594D01*
X163257190Y-75783566D01*
X163604637Y-76289664D01*
X163887424Y-76775753D01*
X164209558Y-77394673D01*
X164554971Y-78111796D01*
X164907597Y-78892494D01*
X165251369Y-79702140D01*
X165570219Y-80506105D01*
X165611197Y-80614225D01*
X165803776Y-81109512D01*
X165966766Y-81496945D01*
X166092505Y-81759910D01*
X166173329Y-81881794D01*
X166196077Y-81882301D01*
X166238587Y-81749403D01*
X166299370Y-81487476D01*
X166368433Y-81141600D01*
X166404712Y-80941173D01*
X166510363Y-79834726D01*
X166445757Y-78733203D01*
X166216671Y-77652723D01*
X165828881Y-76609406D01*
X165288164Y-75619372D01*
X164600296Y-74698741D01*
X163914623Y-73992331D01*
X163069682Y-73319386D01*
X162148654Y-72788621D01*
X161416564Y-72481144D01*
X161085054Y-72370682D01*
X160700399Y-72258605D01*
X160301003Y-72154028D01*
X159925269Y-72066065D01*
X159611602Y-72003830D01*
X159398405Y-71976437D01*
X159326560Y-71985126D01*
X156752788Y-71985126D01*
X156223830Y-71698974D01*
X154209126Y-70785304D01*
X152153723Y-70043237D01*
X150058648Y-69473003D01*
X147924922Y-69074835D01*
X145753571Y-68848965D01*
X143545617Y-68795625D01*
X143426076Y-68797646D01*
X141975137Y-68825180D01*
X141738222Y-69442542D01*
X141571628Y-69832264D01*
X141355239Y-70279274D01*
X141133640Y-70691847D01*
X141116591Y-70721361D01*
X140731875Y-71382819D01*
X140674452Y-70897750D01*
X140645544Y-70568363D01*
X140622249Y-70146702D01*
X140609070Y-69716879D01*
X140608306Y-69662392D01*
X140599584Y-68912104D01*
X140180660Y-68939589D01*
X139739451Y-68978143D01*
X139169287Y-69042180D01*
X138514730Y-69125484D01*
X137820343Y-69221839D01*
X137130689Y-69325030D01*
X136490329Y-69428843D01*
X135943826Y-69527060D01*
X135881181Y-69539254D01*
X134535900Y-69834902D01*
X133156981Y-70195422D01*
X131787382Y-70607146D01*
X130470066Y-71056404D01*
X129247991Y-71529527D01*
X128276657Y-71958936D01*
X127799520Y-72197494D01*
X127260449Y-72486898D01*
X126697095Y-72805003D01*
X126147108Y-73129661D01*
X125648139Y-73438727D01*
X125237839Y-73710053D01*
X124989167Y-73892669D01*
X124768681Y-74068828D01*
X125698242Y-74070789D01*
X126508723Y-74109587D01*
X127215839Y-74229998D01*
X127878127Y-74443624D01*
X128134919Y-74553800D01*
X128889090Y-74968889D01*
X129607966Y-75498150D01*
X130261504Y-76111230D01*
X130819663Y-76777775D01*
X131252399Y-77467431D01*
X131447209Y-77900404D01*
X131616434Y-78350180D01*
X131191168Y-77946307D01*
X130367323Y-77255674D01*
X129449457Y-76647641D01*
X128483973Y-76148802D01*
X127517274Y-75785751D01*
X127326320Y-75731358D01*
X126714153Y-75611625D01*
X125990553Y-75541055D01*
X125213504Y-75519697D01*
X124440986Y-75547601D01*
X123730980Y-75624818D01*
X123225278Y-75727831D01*
X122104063Y-76112978D01*
X121075428Y-76639225D01*
X120149175Y-77294018D01*
X119335102Y-78064802D01*
X118643010Y-78939021D01*
X118082697Y-79904122D01*
X117663964Y-80947547D01*
X117396610Y-82056743D01*
X117290434Y-83219155D01*
X117289081Y-83333167D01*
X116302144Y-83333167D01*
X116308258Y-82700138D01*
X116331807Y-82190064D01*
X116380394Y-81749785D01*
X116461626Y-81326139D01*
X116583108Y-80865966D01*
X116718513Y-80422750D01*
X117152078Y-79339404D01*
X117742831Y-78312798D01*
X118476258Y-77359270D01*
X119337849Y-76495159D01*
X120313091Y-75736803D01*
X121387470Y-75100540D01*
X121492678Y-75047774D01*
X121970837Y-74832046D01*
X122502825Y-74625587D01*
X123045929Y-74441834D01*
X123557438Y-74294222D01*
X123994642Y-74196190D01*
X124310940Y-74161167D01*
X124528076Y-74104085D01*
X124800662Y-73923296D01*
X125016495Y-73734951D01*
X126021374Y-72891936D01*
X127182244Y-72081634D01*
X128480499Y-71311689D01*
X129897532Y-70589745D01*
X131414737Y-69923446D01*
X133013507Y-69320436D01*
X134675235Y-68788357D01*
X136381315Y-68334855D01*
X138113141Y-67967572D01*
X139658973Y-67719679D01*
X140438153Y-67614213D01*
X140377754Y-67073169D01*
X140228962Y-66029501D01*
X140005706Y-64864104D01*
X139717265Y-63610492D01*
X139372915Y-62302180D01*
X138981933Y-60972682D01*
X138553598Y-59655512D01*
X138097186Y-58384185D01*
X137682539Y-57336809D01*
X137457819Y-56807493D01*
X137228191Y-56286314D01*
X137005500Y-55798154D01*
X136801589Y-55367895D01*
X136628302Y-55020417D01*
X136497483Y-54780603D01*
X136420975Y-54673333D01*
X136413092Y-54669972D01*
X136331499Y-54716517D01*
X136124067Y-54847077D01*
X135811863Y-55048038D01*
X135415957Y-55305787D01*
X134957415Y-55606708D01*
X134672236Y-55794885D01*
X134120935Y-56156410D01*
X133557726Y-56520496D01*
X133019727Y-56863523D01*
X132544059Y-57161869D01*
X132167840Y-57391913D01*
X132088820Y-57438843D01*
X131656766Y-57694770D01*
X131169759Y-57985992D01*
X130652834Y-58297251D01*
X130131028Y-58613287D01*
X129629373Y-58918840D01*
X129172906Y-59198651D01*
X128786661Y-59437461D01*
X128495673Y-59620009D01*
X128324977Y-59731037D01*
X128304493Y-59745492D01*
X128222294Y-59816717D01*
X128193598Y-59900439D01*
X128224456Y-60037619D01*
X128320918Y-60269220D01*
X128411025Y-60466678D01*
X128576310Y-60868315D01*
X128728873Y-61310169D01*
X128820610Y-61637333D01*
X128941976Y-62527301D01*
X128901320Y-63427494D01*
X128709851Y-64314895D01*
X128378777Y-65166488D01*
X127919304Y-65959254D01*
X127342639Y-66670177D01*
X126659991Y-67276240D01*
X125882567Y-67754425D01*
X125829503Y-67780302D01*
X125419874Y-67965187D01*
X125152814Y-68059069D01*
X125030512Y-68062452D01*
X125055160Y-67975841D01*
X125228949Y-67799741D01*
X125375573Y-67675749D01*
X125902338Y-67161541D01*
X126397424Y-66518468D01*
X126831128Y-65794044D01*
X127173749Y-65035782D01*
X127335334Y-64540697D01*
X127457707Y-63874518D01*
X127497745Y-63130256D01*
X127456477Y-62380564D01*
X127334933Y-61698094D01*
X127292938Y-61549139D01*
X126907728Y-60566529D01*
X126394399Y-59704233D01*
X125755772Y-58965134D01*
X124994665Y-58352115D01*
X124113896Y-57868060D01*
X123445764Y-57613298D01*
X122573466Y-57422213D01*
X121656304Y-57387721D01*
X120724646Y-57506873D01*
X119808861Y-57776722D01*
X119259951Y-58019633D01*
X118468611Y-58513680D01*
X117788599Y-59129663D01*
X117225978Y-59847983D01*
X116786808Y-60649042D01*
X116477151Y-61513242D01*
X116303068Y-62420984D01*
X116270622Y-63352671D01*
X116385872Y-64288703D01*
X116654881Y-65209484D01*
X116878745Y-65718801D01*
X117386728Y-66550785D01*
X118015207Y-67265540D01*
X118747582Y-67856817D01*
X119567250Y-68318366D01*
X120457608Y-68643940D01*
X121402055Y-68827288D01*
X122383987Y-68862164D01*
X123386804Y-68742318D01*
X124276034Y-68502995D01*
X124539799Y-68420246D01*
X124727599Y-68375348D01*
X124788384Y-68374513D01*
X124744624Y-68437337D01*
X124574805Y-68550579D01*
X124315070Y-68695341D01*
X124001557Y-68852725D01*
X123670408Y-69003833D01*
X123357763Y-69129767D01*
X123313473Y-69145751D01*
X122880908Y-69254533D01*
X122332122Y-69327504D01*
X121718833Y-69364049D01*
X121092759Y-69363550D01*
X120505616Y-69325393D01*
X120009124Y-69248961D01*
X119785695Y-69187754D01*
X118755693Y-68748390D01*
X117845590Y-68180988D01*
X117059663Y-67490056D01*
X116402188Y-66680099D01*
X115877444Y-65755624D01*
X115489707Y-64721137D01*
X115465346Y-64635944D01*
X115349262Y-64052320D01*
X115287327Y-63366976D01*
X115280318Y-62646313D01*
X115329007Y-61956730D01*
X115427467Y-61391268D01*
X115767865Y-60371336D01*
X116259846Y-59429778D01*
X116890944Y-58580146D01*
X117648698Y-57835991D01*
X118520643Y-57210864D01*
X119494315Y-56718317D01*
X119850852Y-56581860D01*
X120163295Y-56475273D01*
X120424245Y-56400625D01*
X120677531Y-56352135D01*
X120966984Y-56324020D01*
X121336434Y-56310498D01*
X121829711Y-56305786D01*
X121946459Y-56305394D01*
X122494271Y-56307392D01*
X122909291Y-56319968D01*
X123235011Y-56347538D01*
X123514918Y-56394520D01*
X123792504Y-56465330D01*
X123930834Y-56506949D01*
X124739894Y-56816276D01*
X125533240Y-57227443D01*
X126266649Y-57712439D01*
X126895897Y-58243256D01*
X127220415Y-58590361D01*
X127555481Y-58991376D01*
X128411040Y-58346533D01*
X128694144Y-58137517D01*
X129097465Y-57845901D01*
X129596112Y-57489370D01*
X130165195Y-57085611D01*
X130779825Y-56652308D01*
X131415110Y-56207148D01*
X131780139Y-55952642D01*
X132414305Y-55511260D01*
X133041227Y-55074736D01*
X133636285Y-54660228D01*
X134174861Y-54284891D01*
X134632334Y-53965881D01*
X134984084Y-53720355D01*
X135131528Y-53617279D01*
X135645359Y-53260240D01*
X136039224Y-52999258D01*
X136336945Y-52828228D01*
X136562345Y-52741043D01*
X136739248Y-52731594D01*
X136891475Y-52793775D01*
X137042850Y-52921480D01*
X137198144Y-53087496D01*
X137440393Y-53375928D01*
X137680508Y-53708123D01*
X137933952Y-54109507D01*
X138216188Y-54605506D01*
X138542679Y-55221549D01*
X138786047Y-55698576D01*
X139545646Y-57292638D01*
X140271657Y-59000376D01*
X140971370Y-60840308D01*
X141652072Y-62830950D01*
X141903521Y-63618797D01*
X142059814Y-64121424D01*
X142170871Y-64503188D01*
X142244268Y-64811525D01*
X142287580Y-65093868D01*
X142308385Y-65397653D01*
X142314258Y-65770313D01*
X142313137Y-66183451D01*
X142307196Y-67422278D01*
X143879966Y-67385155D01*
X145306571Y-67381777D01*
X146635014Y-67446663D01*
X147918946Y-67586586D01*
X149212019Y-67808319D01*
X150567884Y-68118636D01*
X151359306Y-68329382D01*
X153131779Y-68873087D01*
X154747581Y-69475756D01*
X156202876Y-70135828D01*
X157365217Y-70773453D01*
X157622339Y-70922085D01*
X157821467Y-71006757D01*
X158026208Y-71040619D01*
X158300166Y-71036824D01*
X158555842Y-71019635D01*
X159192402Y-71016438D01*
X159919384Y-71083978D01*
X160670054Y-71212904D01*
X161377677Y-71393861D01*
X161497346Y-71431902D01*
X162629460Y-71895029D01*
X163675009Y-72504023D01*
X164622458Y-73245115D01*
X165460271Y-74104537D01*
X166176912Y-75068517D01*
X166760846Y-76123289D01*
X167200536Y-77255082D01*
X167484446Y-78450127D01*
X167509021Y-78607437D01*
X167572719Y-79342306D01*
X167566554Y-80147491D01*
X167496569Y-80977372D01*
X167368805Y-81786331D01*
X167189303Y-82528747D01*
X166964104Y-83159003D01*
X166883784Y-83328744D01*
X166706442Y-83676364D01*
X167005590Y-84717439D01*
X167245962Y-85573721D01*
X167433894Y-86295146D01*
X167574997Y-86913422D01*
X167674882Y-87460255D01*
X167739158Y-87967351D01*
X167773435Y-88466417D01*
X167783324Y-88989161D01*
X167782789Y-89109903D01*
X167705455Y-90576293D01*
X167501692Y-92028413D01*
X167179108Y-93440586D01*
X166745310Y-94787133D01*
X166207907Y-96042377D01*
X165574507Y-97180640D01*
X165248070Y-97664764D01*
X164193351Y-99010883D01*
X163058555Y-100216158D01*
X161825692Y-101295648D01*
X160476775Y-102264415D01*
X158993812Y-103137516D01*
X158268244Y-103507961D01*
X157774198Y-103751346D01*
X157419944Y-103932581D01*
X157185687Y-104064654D01*
X157051632Y-104160549D01*
X156997985Y-104233252D01*
X157004952Y-104295751D01*
X157023162Y-104324787D01*
X157121552Y-104451497D01*
X157304857Y-104681666D01*
X157546484Y-104982083D01*
X157807820Y-105304745D01*
X158313363Y-105964589D01*
X158793426Y-106673917D01*
X159267596Y-107464911D01*
X159755461Y-108369753D01*
X160136078Y-109130041D01*
X160979315Y-110992866D01*
X161664853Y-112803693D01*
X162197758Y-114578502D01*
X162583094Y-116333273D01*
X162741107Y-117349205D01*
X162783723Y-117809918D01*
X162807767Y-118375321D01*
X162814394Y-119007084D01*
X162804757Y-119666875D01*
X162780009Y-120316362D01*
X162741304Y-120917214D01*
X162689795Y-121431101D01*
X162626636Y-121819689D01*
X162603772Y-121912684D01*
X162316181Y-122717150D01*
X161944386Y-123380562D01*
X161494026Y-123897520D01*
X160970741Y-124262626D01*
X160380168Y-124470480D01*
X159880770Y-124519972D01*
X159228870Y-124437663D01*
X158604619Y-124187941D01*
X157997948Y-123766614D01*
X157929651Y-123707673D01*
X157717018Y-123526728D01*
X157560853Y-123405357D01*
X157505847Y-123373444D01*
X157474892Y-123452668D01*
X157444667Y-123654861D01*
X157431186Y-123806123D01*
X157427748Y-124045243D01*
X157452977Y-124178645D01*
X157479634Y-124189843D01*
X157521242Y-124222867D01*
X157507578Y-124352477D01*
X157466296Y-124549997D01*
X157410275Y-124850943D01*
X157360612Y-125137333D01*
X157215108Y-125889623D01*
X157011537Y-126771493D01*
X156759824Y-127749769D01*
X156469898Y-128791274D01*
X156151685Y-129862834D01*
X155815111Y-130931271D01*
X155470104Y-131963411D01*
X155126590Y-132926077D01*
X154794495Y-133786094D01*
X154714293Y-133981475D01*
X154383841Y-134775369D01*
X154898606Y-135490552D01*
X155411378Y-136247948D01*
X155795644Y-136925894D01*
X156062221Y-137553114D01*
X156221929Y-138158334D01*
X156285586Y-138770276D01*
X156281701Y-139162768D01*
X156178293Y-139915609D01*
X155936456Y-140573587D01*
X155542555Y-141166491D01*
X155197441Y-141532114D01*
X154550715Y-142033503D01*
X153819474Y-142390396D01*
X152993739Y-142606365D01*
X152063530Y-142684987D01*
X151976667Y-142685449D01*
X150868246Y-142601607D01*
X149819729Y-142352499D01*
X148834007Y-141939776D01*
X147913969Y-141365094D01*
X147062503Y-140630105D01*
X146282499Y-139736463D01*
X145908407Y-139213071D01*
X145448068Y-138369071D01*
X145131837Y-137427968D01*
X144958956Y-136386998D01*
X144922859Y-135610423D01*
X144921805Y-135251145D01*
X145660900Y-135251145D01*
X145681484Y-135462741D01*
X145687404Y-135522308D01*
X145779341Y-136314223D01*
X145899225Y-136969497D01*
X146061061Y-137527328D01*
X146278855Y-138026910D01*
X146566610Y-138507441D01*
X146928458Y-138995736D01*
X147677890Y-139824184D01*
X148488345Y-140509411D01*
X149345684Y-141041602D01*
X150235765Y-141410942D01*
X150527321Y-141493670D01*
X150959225Y-141566799D01*
X151482251Y-141601695D01*
X152042910Y-141600115D01*
X152587714Y-141563814D01*
X153063178Y-141494548D01*
X153403277Y-141399263D01*
X153986041Y-141100424D01*
X154471464Y-140725923D01*
X154821967Y-140305273D01*
X154845275Y-140266731D01*
X155038163Y-139793688D01*
X155134412Y-139231588D01*
X155126907Y-138643357D01*
X155068033Y-138297317D01*
X154917369Y-137868179D01*
X154660452Y-137356650D01*
X154319841Y-136800843D01*
X153918096Y-136238866D01*
X153658799Y-135916603D01*
X153414971Y-135607730D01*
X153216341Y-135319648D01*
X153092376Y-135096773D01*
X153068075Y-135026142D01*
X153075472Y-134812690D01*
X153155296Y-134452877D01*
X153308818Y-133941611D01*
X153424623Y-133595483D01*
X153609007Y-133051892D01*
X153821383Y-132414590D01*
X154037077Y-131758210D01*
X154231417Y-131157384D01*
X154254437Y-131085333D01*
X154677994Y-129757290D01*
X153481671Y-130958945D01*
X152761187Y-131655263D01*
X152121510Y-132214388D01*
X151549009Y-132648103D01*
X151450853Y-132714551D01*
X150507935Y-133293991D01*
X149531588Y-133808108D01*
X148557652Y-134241284D01*
X147621967Y-134577903D01*
X146760375Y-134802351D01*
X146583571Y-134835254D01*
X146167662Y-134905369D01*
X145895829Y-134960251D01*
X145739684Y-135021665D01*
X145670837Y-135111375D01*
X145660900Y-135251145D01*
X144921805Y-135251145D01*
X144921112Y-135015111D01*
X144669282Y-135015111D01*
G37*
X144669282Y-135015111D02*
X144535292Y-135023526D01*
X144455127Y-135074744D01*
X144408626Y-135207723D01*
X144375632Y-135461420D01*
X144361228Y-135610423D01*
X144313969Y-136175339D01*
X144298698Y-136613075D01*
X144322617Y-136971091D01*
X144392930Y-137296844D01*
X144516837Y-137637795D01*
X144701543Y-138041402D01*
X144743169Y-138127170D01*
X145147396Y-139069333D01*
X145406415Y-139948987D01*
X145527243Y-140792729D01*
X145538473Y-141140203D01*
X145464191Y-142082120D01*
X145245869Y-142935697D01*
X144890292Y-143691812D01*
X144404244Y-144341344D01*
X143794509Y-144875171D01*
X143067872Y-145284171D01*
X142256006Y-145553419D01*
X141831338Y-145622688D01*
X141312500Y-145662997D01*
X140778155Y-145671623D01*
X140306965Y-145645839D01*
X140158612Y-145626086D01*
X139712198Y-145519744D01*
X139181545Y-145343480D01*
X138631743Y-145121255D01*
X138136548Y-144881687D01*
X137247854Y-144306068D01*
X136457499Y-143587633D01*
X135773431Y-142735031D01*
X135203601Y-141756916D01*
X135135937Y-141615894D01*
X134870696Y-141015186D01*
X134674549Y-140475701D01*
X134536428Y-139947590D01*
X134445261Y-139381005D01*
X134389979Y-138726096D01*
X134365379Y-138146014D01*
X134359125Y-137665016D01*
X134364143Y-137048904D01*
X134379087Y-136328661D01*
X134402610Y-135535270D01*
X134433367Y-134699714D01*
X134470011Y-133852977D01*
X134511196Y-133026041D01*
X134555576Y-132249889D01*
X134601805Y-131555505D01*
X134648537Y-130973871D01*
X134694425Y-130535972D01*
X134696830Y-130517194D01*
X134744502Y-130024828D01*
X134738771Y-129685932D01*
X134704829Y-129536723D01*
X134647589Y-129420079D01*
X134559296Y-129347646D01*
X134398733Y-129305154D01*
X134124683Y-129278334D01*
X133922113Y-129265756D01*
X133351031Y-129188757D01*
X132851808Y-129015525D01*
X132383384Y-128724913D01*
X131904698Y-128295775D01*
X131774006Y-128159448D01*
X131284790Y-127531170D01*
X130840668Y-126746206D01*
X130448029Y-125819960D01*
X130113262Y-124767834D01*
X129842755Y-123605232D01*
X129807249Y-123417542D01*
X129612933Y-121995451D01*
X129527258Y-120469700D01*
X129528784Y-120349256D01*
X130555628Y-120349256D01*
X130594543Y-121131532D01*
X130637810Y-121622259D01*
X130800292Y-122845391D01*
X131028707Y-123978689D01*
X131317671Y-125005804D01*
X131661804Y-125910387D01*
X132055722Y-126676089D01*
X132494045Y-127286561D01*
X132507352Y-127301769D01*
X132949230Y-127705819D01*
X133433247Y-127977709D01*
X133930967Y-128108932D01*
X134413957Y-128090984D01*
X134752006Y-127973200D01*
X135174878Y-127663376D01*
X135563055Y-127186544D01*
X135914234Y-126549083D01*
X136226117Y-125757374D01*
X136496403Y-124817797D01*
X136722793Y-123736730D01*
X136902986Y-122520555D01*
X136982564Y-121785944D01*
X137145051Y-120303155D01*
X137338830Y-118963741D01*
X137570928Y-117736366D01*
X137848371Y-116589694D01*
X138178184Y-115492390D01*
X138567393Y-114413116D01*
X138722633Y-114024833D01*
X138884435Y-113654291D01*
X139080240Y-113243240D01*
X139294746Y-112819489D01*
X139512653Y-112410847D01*
X139718662Y-112045122D01*
X139897471Y-111750123D01*
X140033781Y-111553660D01*
X140112291Y-111483541D01*
X140119181Y-111486560D01*
X140107531Y-111576643D01*
X140055740Y-111800132D01*
X139972635Y-112120978D01*
X139891134Y-112417839D01*
X139725194Y-113040065D01*
X139571293Y-113686916D01*
X139426348Y-114377281D01*
X139287275Y-115130044D01*
X139150989Y-115964093D01*
X139014407Y-116898315D01*
X138874444Y-117951596D01*
X138728016Y-119142823D01*
X138572040Y-120490883D01*
X138570207Y-120507125D01*
X138367409Y-122082848D01*
X138133072Y-123489022D01*
X137865599Y-124729928D01*
X137563396Y-125809846D01*
X137224869Y-126733054D01*
X136848422Y-127503834D01*
X136432461Y-128126465D01*
X135975390Y-128605227D01*
X135475616Y-128944400D01*
X135415004Y-128974808D01*
X135188869Y-129108153D01*
X135042634Y-129238985D01*
X135019055Y-129282472D01*
X135014041Y-129404085D01*
X135017820Y-129676340D01*
X135029547Y-130073753D01*
X135048375Y-130570838D01*
X135073457Y-131142114D01*
X135096658Y-131619625D01*
X135130654Y-132376313D01*
X135161041Y-133213190D01*
X135186092Y-134069596D01*
X135204079Y-134884872D01*
X135213274Y-135598357D01*
X135213954Y-135738198D01*
X135232868Y-136902394D01*
X135285820Y-137915723D01*
X135378408Y-138801403D01*
X135516229Y-139582646D01*
X135704881Y-140282669D01*
X135949959Y-140924687D01*
X136257063Y-141531914D01*
X136631787Y-142127566D01*
X136817525Y-142389229D01*
X137325585Y-142961017D01*
X137960878Y-143485237D01*
X138674975Y-143930296D01*
X139419446Y-144264600D01*
X139919474Y-144412803D01*
X140527990Y-144494722D01*
X141192622Y-144490553D01*
X141836900Y-144404735D01*
X142301648Y-144274586D01*
X142647428Y-144107076D01*
X143013984Y-143871738D01*
X143229174Y-143700119D01*
X143600569Y-143301479D01*
X143859454Y-142858563D01*
X144021580Y-142333228D01*
X144102702Y-141687331D01*
X144109271Y-141569101D01*
X144118062Y-141206718D01*
X144102478Y-140873515D01*
X144055022Y-140537995D01*
X143968199Y-140168664D01*
X143834512Y-139734023D01*
X143646465Y-139202576D01*
X143396563Y-138542827D01*
X143376939Y-138492007D01*
X142991890Y-137495737D01*
X143240006Y-136586153D01*
X143458090Y-135856234D01*
X143678268Y-135271818D01*
X143914595Y-134802425D01*
X144181129Y-134417576D01*
X144307329Y-134271791D01*
X144556227Y-134019502D01*
X144717283Y-133894520D01*
X144783329Y-133899436D01*
X144747198Y-134036842D01*
X144702890Y-134128787D01*
X144610813Y-134320053D01*
X144568618Y-134433761D01*
X144568334Y-134437467D01*
X144649048Y-134484502D01*
X144870864Y-134495155D01*
X145203293Y-134473905D01*
X145615846Y-134425232D01*
X146078034Y-134353615D01*
X146559369Y-134263532D01*
X147029360Y-134159462D01*
X147457519Y-134045885D01*
X147655139Y-133984008D01*
X148178097Y-133782074D01*
X148792304Y-133502434D01*
X149446878Y-133171844D01*
X150090935Y-132817056D01*
X150673594Y-132464824D01*
X151108980Y-132168018D01*
X152161740Y-131300650D01*
X153193631Y-130276232D01*
X154189046Y-129114023D01*
X155132378Y-127833283D01*
X156008023Y-126453272D01*
X156591524Y-125401917D01*
X156875561Y-124830735D01*
X157099761Y-124304588D01*
X157275950Y-123781291D01*
X157415958Y-123218657D01*
X157531610Y-122574503D01*
X157634735Y-121806643D01*
X157659795Y-121591724D01*
X157766428Y-120192243D01*
X157783833Y-118688921D01*
X157713535Y-117129170D01*
X157557058Y-115560401D01*
X157439396Y-114739557D01*
X157159135Y-113348629D01*
X156753143Y-111879903D01*
X156232710Y-110366661D01*
X155609121Y-108842188D01*
X155003004Y-107555641D01*
X154779750Y-107133068D01*
X154530076Y-106697754D01*
X154272116Y-106277246D01*
X154024004Y-105899092D01*
X153803877Y-105590841D01*
X153629867Y-105380038D01*
X153520111Y-105294233D01*
X153513887Y-105293583D01*
X153387526Y-105311414D01*
X153127404Y-105359910D01*
X152771974Y-105431576D01*
X152376740Y-105515227D01*
X151704760Y-105651315D01*
X150909235Y-105797611D01*
X150042024Y-105945744D01*
X149154991Y-106087343D01*
X148299997Y-106214036D01*
X147528903Y-106317453D01*
X147081876Y-106369894D01*
X146633317Y-106406283D01*
X146033930Y-106436185D01*
X145309180Y-106458862D01*
X144484532Y-106473579D01*
X143585454Y-106479598D01*
X143289514Y-106479573D01*
X142341073Y-106474578D01*
X141532464Y-106460983D01*
X140827212Y-106435625D01*
X140188845Y-106395344D01*
X139580889Y-106336979D01*
X138966870Y-106257371D01*
X138310315Y-106153357D01*
X137574750Y-106021777D01*
X137206817Y-105952458D01*
X136767522Y-105870888D01*
X136381912Y-105803220D01*
X136087759Y-105755804D01*
X135922833Y-105734992D01*
X135910891Y-105734555D01*
X135773457Y-105798866D01*
X135547668Y-105975751D01*
X135256707Y-106241141D01*
X134923761Y-106570966D01*
X134572015Y-106941158D01*
X134224654Y-107327647D01*
X133904863Y-107706363D01*
X133635828Y-108053237D01*
X133524214Y-108212247D01*
X132887535Y-109264269D01*
X132334275Y-110397956D01*
X131860134Y-111627618D01*
X131460811Y-112967564D01*
X131132006Y-114432103D01*
X130869418Y-116035543D01*
X130679615Y-117677019D01*
X130597632Y-118672243D01*
X130556480Y-119546241D01*
X130555628Y-120349256D01*
X129528784Y-120349256D01*
X129547486Y-118873402D01*
X129670878Y-117239673D01*
X129894693Y-115601625D01*
X130216194Y-113992373D01*
X130632641Y-112445032D01*
X130743831Y-112094452D01*
X131285846Y-110641806D01*
X131919519Y-109328480D01*
X132654994Y-108137372D01*
X133502415Y-107051377D01*
X134134799Y-106377096D01*
X135041340Y-105476234D01*
X134667510Y-105379509D01*
X133144697Y-104934113D01*
X131628067Y-104391844D01*
X130142669Y-103765612D01*
X128713551Y-103068326D01*
X127365763Y-102312898D01*
X126124354Y-101512236D01*
X125014373Y-100679253D01*
X124251237Y-100010950D01*
X123886789Y-99643762D01*
X123458361Y-99176738D01*
X123003196Y-98653762D01*
X122558534Y-98118718D01*
X122161618Y-97615490D01*
X121849689Y-97187962D01*
X121826058Y-97153218D01*
X121162454Y-96068668D01*
X120560348Y-94885053D01*
X120037114Y-93646218D01*
X119610125Y-92396006D01*
X119296755Y-91178261D01*
X119163571Y-90434268D01*
X119108053Y-90084105D01*
X119044060Y-89839362D01*
X118942081Y-89639890D01*
X118772610Y-89425537D01*
X118549439Y-89182421D01*
X118137606Y-88719230D01*
X117802683Y-88281571D01*
X117505922Y-87811817D01*
X117208573Y-87252336D01*
X117093709Y-87017419D01*
X116793346Y-86345893D01*
X116575542Y-85732811D01*
X116429130Y-85126203D01*
X116342945Y-84474097D01*
X116305821Y-83724522D01*
X116302144Y-83333167D01*
X117289081Y-83333167D01*
X117359742Y-84422441D01*
X117574678Y-85500178D01*
X117922296Y-86538286D01*
X118391001Y-87508673D01*
X118969198Y-88383248D01*
X119645293Y-89133919D01*
X119706877Y-89191087D01*
X120477770Y-89827358D01*
X121277688Y-90342202D01*
X122142047Y-90752672D01*
X123106262Y-91075818D01*
X124107223Y-91309716D01*
X125121459Y-91508224D01*
X124688085Y-91578015D01*
X124244006Y-91612520D01*
X123690701Y-91600228D01*
X123087593Y-91546013D01*
X122494105Y-91454755D01*
X122090711Y-91364846D01*
X121706388Y-91243589D01*
X121248172Y-91068591D01*
X120796589Y-90871354D01*
X120657551Y-90804168D01*
X120328701Y-90646705D01*
X120067787Y-90534118D01*
X119907944Y-90479974D01*
X119873889Y-90483328D01*
X119894781Y-90591391D01*
X119951686Y-90834260D01*
X120035950Y-91176100D01*
X120138919Y-91581077D01*
X120140480Y-91587134D01*
X120639653Y-93181380D01*
X121293384Y-94697645D01*
X122096849Y-96126296D01*
X123045223Y-97457702D01*
X123140885Y-97576569D01*
X123602622Y-98105293D01*
X124166465Y-98689792D01*
X124788589Y-99288947D01*
X125425173Y-99861636D01*
X126032393Y-100366737D01*
X126451746Y-100683292D01*
X127759636Y-101528758D01*
X129213337Y-102313691D01*
X130790387Y-103030449D01*
X132468323Y-103671392D01*
X134224685Y-104228877D01*
X136037010Y-104695266D01*
X137882837Y-105062915D01*
X139739705Y-105324184D01*
X140246806Y-105376134D01*
X140788516Y-105412315D01*
X141471660Y-105434917D01*
X142261866Y-105444659D01*
X143124758Y-105442260D01*
X144025964Y-105428437D01*
X144931109Y-105403909D01*
X145805820Y-105369395D01*
X146615723Y-105325614D01*
X147326444Y-105273283D01*
X147875626Y-105216659D01*
X148907040Y-105065401D01*
X154292118Y-105065401D01*
X154323839Y-105146290D01*
X154427777Y-105348091D01*
X154587207Y-105639393D01*
X154763959Y-105951506D01*
X155567153Y-107501702D01*
X156273744Y-109179826D01*
X156875823Y-110961336D01*
X157365483Y-112821693D01*
X157734816Y-114736357D01*
X157848682Y-115524139D01*
X157898188Y-116013765D01*
X157937768Y-116625198D01*
X157967020Y-117320727D01*
X157985543Y-118062641D01*
X157992937Y-118813229D01*
X157988799Y-119534780D01*
X157972729Y-120189583D01*
X157944326Y-120739927D01*
X157908140Y-121112873D01*
X157826519Y-121718622D01*
X158152406Y-122130900D01*
X158666800Y-122691709D01*
X159195936Y-123087497D01*
X159429098Y-123208755D01*
X159736319Y-123330489D01*
X159973499Y-123361816D01*
X160219979Y-123306132D01*
X160366417Y-123248854D01*
X160770674Y-122986012D01*
X161113214Y-122561266D01*
X161395128Y-121972981D01*
X161555600Y-121468146D01*
X161615936Y-121210842D01*
X161659739Y-120933588D01*
X161689252Y-120603630D01*
X161706719Y-120188216D01*
X161714382Y-119654591D01*
X161715007Y-119140111D01*
X161693872Y-118158527D01*
X161630754Y-117235948D01*
X161519086Y-116342513D01*
X161352303Y-115448362D01*
X161123840Y-114523634D01*
X160827128Y-113538467D01*
X160455604Y-112463002D01*
X160002700Y-111267377D01*
X159959950Y-111158514D01*
X159504071Y-110075662D01*
X158994756Y-108998787D01*
X158448505Y-107956766D01*
X157881821Y-106978471D01*
X157311206Y-106092778D01*
X156753162Y-105328560D01*
X156361617Y-104862218D01*
X156028165Y-104493296D01*
X155171911Y-104767579D01*
X154812254Y-104884257D01*
X154522135Y-104981157D01*
X154338140Y-105045894D01*
X154292118Y-105065401D01*
X148907040Y-105065401D01*
X150034390Y-104900074D01*
X152038668Y-104507890D01*
X153894146Y-104038383D01*
X155606513Y-103489830D01*
X157181453Y-102860507D01*
X158624655Y-102148692D01*
X159319219Y-101748848D01*
X159926966Y-101369454D01*
X160446114Y-101016575D01*
X160919993Y-100655864D01*
X161391935Y-100252973D01*
X161905271Y-99773553D01*
X162301857Y-99384555D01*
X163271578Y-98358922D01*
X164087468Y-97354872D01*
X164765027Y-96344596D01*
X165319758Y-95300287D01*
X165767161Y-94194134D01*
X166122738Y-92998330D01*
X166302187Y-92208007D01*
X166498563Y-91135012D01*
X166620232Y-90196765D01*
X166669213Y-89369186D01*
X166647521Y-88628197D01*
X166622995Y-88379644D01*
X166493070Y-87550379D01*
X166290213Y-86611508D01*
X166023700Y-85587700D01*
X165702803Y-84503624D01*
X165336798Y-83383948D01*
X164934959Y-82253341D01*
X164506560Y-81136471D01*
X164060875Y-80058005D01*
X163607180Y-79042614D01*
X163154748Y-78114964D01*
X162712854Y-77299725D01*
X162290772Y-76621564D01*
X162104145Y-76360208D01*
X161503531Y-75646119D01*
X160765096Y-74904171D01*
X159919515Y-74158679D01*
X158997461Y-73433958D01*
X158029611Y-72754324D01*
X157046639Y-72144092D01*
X156752788Y-71985126D01*
X159326560Y-71985126D01*
X159379249Y-72044766D01*
X159542937Y-72176806D01*
X159783285Y-72353694D01*
X159805486Y-72369445D01*
X160533114Y-72931099D01*
X161278937Y-73591349D01*
X162006115Y-74312185D01*
X162677812Y-75055594D01*
X163257190Y-75783566D01*
X163604637Y-76289664D01*
X163887424Y-76775753D01*
X164209558Y-77394673D01*
X164554971Y-78111796D01*
X164907597Y-78892494D01*
X165251369Y-79702140D01*
X165570219Y-80506105D01*
X165611197Y-80614225D01*
X165803776Y-81109512D01*
X165966766Y-81496945D01*
X166092505Y-81759910D01*
X166173329Y-81881794D01*
X166196077Y-81882301D01*
X166238587Y-81749403D01*
X166299370Y-81487476D01*
X166368433Y-81141600D01*
X166404712Y-80941173D01*
X166510363Y-79834726D01*
X166445757Y-78733203D01*
X166216671Y-77652723D01*
X165828881Y-76609406D01*
X165288164Y-75619372D01*
X164600296Y-74698741D01*
X163914623Y-73992331D01*
X163069682Y-73319386D01*
X162148654Y-72788621D01*
X161416564Y-72481144D01*
X161085054Y-72370682D01*
X160700399Y-72258605D01*
X160301003Y-72154028D01*
X159925269Y-72066065D01*
X159611602Y-72003830D01*
X159398405Y-71976437D01*
X159326560Y-71985126D01*
X156752788Y-71985126D01*
X156223830Y-71698974D01*
X154209126Y-70785304D01*
X152153723Y-70043237D01*
X150058648Y-69473003D01*
X147924922Y-69074835D01*
X145753571Y-68848965D01*
X143545617Y-68795625D01*
X143426076Y-68797646D01*
X141975137Y-68825180D01*
X141738222Y-69442542D01*
X141571628Y-69832264D01*
X141355239Y-70279274D01*
X141133640Y-70691847D01*
X141116591Y-70721361D01*
X140731875Y-71382819D01*
X140674452Y-70897750D01*
X140645544Y-70568363D01*
X140622249Y-70146702D01*
X140609070Y-69716879D01*
X140608306Y-69662392D01*
X140599584Y-68912104D01*
X140180660Y-68939589D01*
X139739451Y-68978143D01*
X139169287Y-69042180D01*
X138514730Y-69125484D01*
X137820343Y-69221839D01*
X137130689Y-69325030D01*
X136490329Y-69428843D01*
X135943826Y-69527060D01*
X135881181Y-69539254D01*
X134535900Y-69834902D01*
X133156981Y-70195422D01*
X131787382Y-70607146D01*
X130470066Y-71056404D01*
X129247991Y-71529527D01*
X128276657Y-71958936D01*
X127799520Y-72197494D01*
X127260449Y-72486898D01*
X126697095Y-72805003D01*
X126147108Y-73129661D01*
X125648139Y-73438727D01*
X125237839Y-73710053D01*
X124989167Y-73892669D01*
X124768681Y-74068828D01*
X125698242Y-74070789D01*
X126508723Y-74109587D01*
X127215839Y-74229998D01*
X127878127Y-74443624D01*
X128134919Y-74553800D01*
X128889090Y-74968889D01*
X129607966Y-75498150D01*
X130261504Y-76111230D01*
X130819663Y-76777775D01*
X131252399Y-77467431D01*
X131447209Y-77900404D01*
X131616434Y-78350180D01*
X131191168Y-77946307D01*
X130367323Y-77255674D01*
X129449457Y-76647641D01*
X128483973Y-76148802D01*
X127517274Y-75785751D01*
X127326320Y-75731358D01*
X126714153Y-75611625D01*
X125990553Y-75541055D01*
X125213504Y-75519697D01*
X124440986Y-75547601D01*
X123730980Y-75624818D01*
X123225278Y-75727831D01*
X122104063Y-76112978D01*
X121075428Y-76639225D01*
X120149175Y-77294018D01*
X119335102Y-78064802D01*
X118643010Y-78939021D01*
X118082697Y-79904122D01*
X117663964Y-80947547D01*
X117396610Y-82056743D01*
X117290434Y-83219155D01*
X117289081Y-83333167D01*
X116302144Y-83333167D01*
X116308258Y-82700138D01*
X116331807Y-82190064D01*
X116380394Y-81749785D01*
X116461626Y-81326139D01*
X116583108Y-80865966D01*
X116718513Y-80422750D01*
X117152078Y-79339404D01*
X117742831Y-78312798D01*
X118476258Y-77359270D01*
X119337849Y-76495159D01*
X120313091Y-75736803D01*
X121387470Y-75100540D01*
X121492678Y-75047774D01*
X121970837Y-74832046D01*
X122502825Y-74625587D01*
X123045929Y-74441834D01*
X123557438Y-74294222D01*
X123994642Y-74196190D01*
X124310940Y-74161167D01*
X124528076Y-74104085D01*
X124800662Y-73923296D01*
X125016495Y-73734951D01*
X126021374Y-72891936D01*
X127182244Y-72081634D01*
X128480499Y-71311689D01*
X129897532Y-70589745D01*
X131414737Y-69923446D01*
X133013507Y-69320436D01*
X134675235Y-68788357D01*
X136381315Y-68334855D01*
X138113141Y-67967572D01*
X139658973Y-67719679D01*
X140438153Y-67614213D01*
X140377754Y-67073169D01*
X140228962Y-66029501D01*
X140005706Y-64864104D01*
X139717265Y-63610492D01*
X139372915Y-62302180D01*
X138981933Y-60972682D01*
X138553598Y-59655512D01*
X138097186Y-58384185D01*
X137682539Y-57336809D01*
X137457819Y-56807493D01*
X137228191Y-56286314D01*
X137005500Y-55798154D01*
X136801589Y-55367895D01*
X136628302Y-55020417D01*
X136497483Y-54780603D01*
X136420975Y-54673333D01*
X136413092Y-54669972D01*
X136331499Y-54716517D01*
X136124067Y-54847077D01*
X135811863Y-55048038D01*
X135415957Y-55305787D01*
X134957415Y-55606708D01*
X134672236Y-55794885D01*
X134120935Y-56156410D01*
X133557726Y-56520496D01*
X133019727Y-56863523D01*
X132544059Y-57161869D01*
X132167840Y-57391913D01*
X132088820Y-57438843D01*
X131656766Y-57694770D01*
X131169759Y-57985992D01*
X130652834Y-58297251D01*
X130131028Y-58613287D01*
X129629373Y-58918840D01*
X129172906Y-59198651D01*
X128786661Y-59437461D01*
X128495673Y-59620009D01*
X128324977Y-59731037D01*
X128304493Y-59745492D01*
X128222294Y-59816717D01*
X128193598Y-59900439D01*
X128224456Y-60037619D01*
X128320918Y-60269220D01*
X128411025Y-60466678D01*
X128576310Y-60868315D01*
X128728873Y-61310169D01*
X128820610Y-61637333D01*
X128941976Y-62527301D01*
X128901320Y-63427494D01*
X128709851Y-64314895D01*
X128378777Y-65166488D01*
X127919304Y-65959254D01*
X127342639Y-66670177D01*
X126659991Y-67276240D01*
X125882567Y-67754425D01*
X125829503Y-67780302D01*
X125419874Y-67965187D01*
X125152814Y-68059069D01*
X125030512Y-68062452D01*
X125055160Y-67975841D01*
X125228949Y-67799741D01*
X125375573Y-67675749D01*
X125902338Y-67161541D01*
X126397424Y-66518468D01*
X126831128Y-65794044D01*
X127173749Y-65035782D01*
X127335334Y-64540697D01*
X127457707Y-63874518D01*
X127497745Y-63130256D01*
X127456477Y-62380564D01*
X127334933Y-61698094D01*
X127292938Y-61549139D01*
X126907728Y-60566529D01*
X126394399Y-59704233D01*
X125755772Y-58965134D01*
X124994665Y-58352115D01*
X124113896Y-57868060D01*
X123445764Y-57613298D01*
X122573466Y-57422213D01*
X121656304Y-57387721D01*
X120724646Y-57506873D01*
X119808861Y-57776722D01*
X119259951Y-58019633D01*
X118468611Y-58513680D01*
X117788599Y-59129663D01*
X117225978Y-59847983D01*
X116786808Y-60649042D01*
X116477151Y-61513242D01*
X116303068Y-62420984D01*
X116270622Y-63352671D01*
X116385872Y-64288703D01*
X116654881Y-65209484D01*
X116878745Y-65718801D01*
X117386728Y-66550785D01*
X118015207Y-67265540D01*
X118747582Y-67856817D01*
X119567250Y-68318366D01*
X120457608Y-68643940D01*
X121402055Y-68827288D01*
X122383987Y-68862164D01*
X123386804Y-68742318D01*
X124276034Y-68502995D01*
X124539799Y-68420246D01*
X124727599Y-68375348D01*
X124788384Y-68374513D01*
X124744624Y-68437337D01*
X124574805Y-68550579D01*
X124315070Y-68695341D01*
X124001557Y-68852725D01*
X123670408Y-69003833D01*
X123357763Y-69129767D01*
X123313473Y-69145751D01*
X122880908Y-69254533D01*
X122332122Y-69327504D01*
X121718833Y-69364049D01*
X121092759Y-69363550D01*
X120505616Y-69325393D01*
X120009124Y-69248961D01*
X119785695Y-69187754D01*
X118755693Y-68748390D01*
X117845590Y-68180988D01*
X117059663Y-67490056D01*
X116402188Y-66680099D01*
X115877444Y-65755624D01*
X115489707Y-64721137D01*
X115465346Y-64635944D01*
X115349262Y-64052320D01*
X115287327Y-63366976D01*
X115280318Y-62646313D01*
X115329007Y-61956730D01*
X115427467Y-61391268D01*
X115767865Y-60371336D01*
X116259846Y-59429778D01*
X116890944Y-58580146D01*
X117648698Y-57835991D01*
X118520643Y-57210864D01*
X119494315Y-56718317D01*
X119850852Y-56581860D01*
X120163295Y-56475273D01*
X120424245Y-56400625D01*
X120677531Y-56352135D01*
X120966984Y-56324020D01*
X121336434Y-56310498D01*
X121829711Y-56305786D01*
X121946459Y-56305394D01*
X122494271Y-56307392D01*
X122909291Y-56319968D01*
X123235011Y-56347538D01*
X123514918Y-56394520D01*
X123792504Y-56465330D01*
X123930834Y-56506949D01*
X124739894Y-56816276D01*
X125533240Y-57227443D01*
X126266649Y-57712439D01*
X126895897Y-58243256D01*
X127220415Y-58590361D01*
X127555481Y-58991376D01*
X128411040Y-58346533D01*
X128694144Y-58137517D01*
X129097465Y-57845901D01*
X129596112Y-57489370D01*
X130165195Y-57085611D01*
X130779825Y-56652308D01*
X131415110Y-56207148D01*
X131780139Y-55952642D01*
X132414305Y-55511260D01*
X133041227Y-55074736D01*
X133636285Y-54660228D01*
X134174861Y-54284891D01*
X134632334Y-53965881D01*
X134984084Y-53720355D01*
X135131528Y-53617279D01*
X135645359Y-53260240D01*
X136039224Y-52999258D01*
X136336945Y-52828228D01*
X136562345Y-52741043D01*
X136739248Y-52731594D01*
X136891475Y-52793775D01*
X137042850Y-52921480D01*
X137198144Y-53087496D01*
X137440393Y-53375928D01*
X137680508Y-53708123D01*
X137933952Y-54109507D01*
X138216188Y-54605506D01*
X138542679Y-55221549D01*
X138786047Y-55698576D01*
X139545646Y-57292638D01*
X140271657Y-59000376D01*
X140971370Y-60840308D01*
X141652072Y-62830950D01*
X141903521Y-63618797D01*
X142059814Y-64121424D01*
X142170871Y-64503188D01*
X142244268Y-64811525D01*
X142287580Y-65093868D01*
X142308385Y-65397653D01*
X142314258Y-65770313D01*
X142313137Y-66183451D01*
X142307196Y-67422278D01*
X143879966Y-67385155D01*
X145306571Y-67381777D01*
X146635014Y-67446663D01*
X147918946Y-67586586D01*
X149212019Y-67808319D01*
X150567884Y-68118636D01*
X151359306Y-68329382D01*
X153131779Y-68873087D01*
X154747581Y-69475756D01*
X156202876Y-70135828D01*
X157365217Y-70773453D01*
X157622339Y-70922085D01*
X157821467Y-71006757D01*
X158026208Y-71040619D01*
X158300166Y-71036824D01*
X158555842Y-71019635D01*
X159192402Y-71016438D01*
X159919384Y-71083978D01*
X160670054Y-71212904D01*
X161377677Y-71393861D01*
X161497346Y-71431902D01*
X162629460Y-71895029D01*
X163675009Y-72504023D01*
X164622458Y-73245115D01*
X165460271Y-74104537D01*
X166176912Y-75068517D01*
X166760846Y-76123289D01*
X167200536Y-77255082D01*
X167484446Y-78450127D01*
X167509021Y-78607437D01*
X167572719Y-79342306D01*
X167566554Y-80147491D01*
X167496569Y-80977372D01*
X167368805Y-81786331D01*
X167189303Y-82528747D01*
X166964104Y-83159003D01*
X166883784Y-83328744D01*
X166706442Y-83676364D01*
X167005590Y-84717439D01*
X167245962Y-85573721D01*
X167433894Y-86295146D01*
X167574997Y-86913422D01*
X167674882Y-87460255D01*
X167739158Y-87967351D01*
X167773435Y-88466417D01*
X167783324Y-88989161D01*
X167782789Y-89109903D01*
X167705455Y-90576293D01*
X167501692Y-92028413D01*
X167179108Y-93440586D01*
X166745310Y-94787133D01*
X166207907Y-96042377D01*
X165574507Y-97180640D01*
X165248070Y-97664764D01*
X164193351Y-99010883D01*
X163058555Y-100216158D01*
X161825692Y-101295648D01*
X160476775Y-102264415D01*
X158993812Y-103137516D01*
X158268244Y-103507961D01*
X157774198Y-103751346D01*
X157419944Y-103932581D01*
X157185687Y-104064654D01*
X157051632Y-104160549D01*
X156997985Y-104233252D01*
X157004952Y-104295751D01*
X157023162Y-104324787D01*
X157121552Y-104451497D01*
X157304857Y-104681666D01*
X157546484Y-104982083D01*
X157807820Y-105304745D01*
X158313363Y-105964589D01*
X158793426Y-106673917D01*
X159267596Y-107464911D01*
X159755461Y-108369753D01*
X160136078Y-109130041D01*
X160979315Y-110992866D01*
X161664853Y-112803693D01*
X162197758Y-114578502D01*
X162583094Y-116333273D01*
X162741107Y-117349205D01*
X162783723Y-117809918D01*
X162807767Y-118375321D01*
X162814394Y-119007084D01*
X162804757Y-119666875D01*
X162780009Y-120316362D01*
X162741304Y-120917214D01*
X162689795Y-121431101D01*
X162626636Y-121819689D01*
X162603772Y-121912684D01*
X162316181Y-122717150D01*
X161944386Y-123380562D01*
X161494026Y-123897520D01*
X160970741Y-124262626D01*
X160380168Y-124470480D01*
X159880770Y-124519972D01*
X159228870Y-124437663D01*
X158604619Y-124187941D01*
X157997948Y-123766614D01*
X157929651Y-123707673D01*
X157717018Y-123526728D01*
X157560853Y-123405357D01*
X157505847Y-123373444D01*
X157474892Y-123452668D01*
X157444667Y-123654861D01*
X157431186Y-123806123D01*
X157427748Y-124045243D01*
X157452977Y-124178645D01*
X157479634Y-124189843D01*
X157521242Y-124222867D01*
X157507578Y-124352477D01*
X157466296Y-124549997D01*
X157410275Y-124850943D01*
X157360612Y-125137333D01*
X157215108Y-125889623D01*
X157011537Y-126771493D01*
X156759824Y-127749769D01*
X156469898Y-128791274D01*
X156151685Y-129862834D01*
X155815111Y-130931271D01*
X155470104Y-131963411D01*
X155126590Y-132926077D01*
X154794495Y-133786094D01*
X154714293Y-133981475D01*
X154383841Y-134775369D01*
X154898606Y-135490552D01*
X155411378Y-136247948D01*
X155795644Y-136925894D01*
X156062221Y-137553114D01*
X156221929Y-138158334D01*
X156285586Y-138770276D01*
X156281701Y-139162768D01*
X156178293Y-139915609D01*
X155936456Y-140573587D01*
X155542555Y-141166491D01*
X155197441Y-141532114D01*
X154550715Y-142033503D01*
X153819474Y-142390396D01*
X152993739Y-142606365D01*
X152063530Y-142684987D01*
X151976667Y-142685449D01*
X150868246Y-142601607D01*
X149819729Y-142352499D01*
X148834007Y-141939776D01*
X147913969Y-141365094D01*
X147062503Y-140630105D01*
X146282499Y-139736463D01*
X145908407Y-139213071D01*
X145448068Y-138369071D01*
X145131837Y-137427968D01*
X144958956Y-136386998D01*
X144922859Y-135610423D01*
X144921805Y-135251145D01*
X145660900Y-135251145D01*
X145681484Y-135462741D01*
X145687404Y-135522308D01*
X145779341Y-136314223D01*
X145899225Y-136969497D01*
X146061061Y-137527328D01*
X146278855Y-138026910D01*
X146566610Y-138507441D01*
X146928458Y-138995736D01*
X147677890Y-139824184D01*
X148488345Y-140509411D01*
X149345684Y-141041602D01*
X150235765Y-141410942D01*
X150527321Y-141493670D01*
X150959225Y-141566799D01*
X151482251Y-141601695D01*
X152042910Y-141600115D01*
X152587714Y-141563814D01*
X153063178Y-141494548D01*
X153403277Y-141399263D01*
X153986041Y-141100424D01*
X154471464Y-140725923D01*
X154821967Y-140305273D01*
X154845275Y-140266731D01*
X155038163Y-139793688D01*
X155134412Y-139231588D01*
X155126907Y-138643357D01*
X155068033Y-138297317D01*
X154917369Y-137868179D01*
X154660452Y-137356650D01*
X154319841Y-136800843D01*
X153918096Y-136238866D01*
X153658799Y-135916603D01*
X153414971Y-135607730D01*
X153216341Y-135319648D01*
X153092376Y-135096773D01*
X153068075Y-135026142D01*
X153075472Y-134812690D01*
X153155296Y-134452877D01*
X153308818Y-133941611D01*
X153424623Y-133595483D01*
X153609007Y-133051892D01*
X153821383Y-132414590D01*
X154037077Y-131758210D01*
X154231417Y-131157384D01*
X154254437Y-131085333D01*
X154677994Y-129757290D01*
X153481671Y-130958945D01*
X152761187Y-131655263D01*
X152121510Y-132214388D01*
X151549009Y-132648103D01*
X151450853Y-132714551D01*
X150507935Y-133293991D01*
X149531588Y-133808108D01*
X148557652Y-134241284D01*
X147621967Y-134577903D01*
X146760375Y-134802351D01*
X146583571Y-134835254D01*
X146167662Y-134905369D01*
X145895829Y-134960251D01*
X145739684Y-135021665D01*
X145670837Y-135111375D01*
X145660900Y-135251145D01*
X144921805Y-135251145D01*
X144921112Y-135015111D01*
X144669282Y-135015111D01*
G36*
X158740010Y-93298900D02*
G01*
X158573546Y-93974196D01*
X158242418Y-94637817D01*
X157758352Y-95278477D01*
X157133072Y-95884886D01*
X156378304Y-96445755D01*
X155505773Y-96949797D01*
X154527203Y-97385724D01*
X154473745Y-97406276D01*
X153816039Y-97633946D01*
X153157132Y-97810117D01*
X152460612Y-97940574D01*
X151690066Y-98031100D01*
X150809081Y-98087481D01*
X150036389Y-98111189D01*
X149371847Y-98122171D01*
X148850784Y-98124485D01*
X148440431Y-98116533D01*
X148108019Y-98096714D01*
X147820780Y-98063428D01*
X147545946Y-98015076D01*
X147390556Y-97982003D01*
X146539675Y-97757571D01*
X145722851Y-97475124D01*
X144963138Y-97147089D01*
X144283592Y-96785892D01*
X143707267Y-96403961D01*
X143257219Y-96013721D01*
X142956502Y-95627598D01*
X142929035Y-95577302D01*
X142825552Y-95351726D01*
X142823702Y-95267999D01*
X142924755Y-95322917D01*
X143002882Y-95390856D01*
X143254131Y-95572157D01*
X143639136Y-95787464D01*
X144122870Y-96019540D01*
X144670307Y-96251149D01*
X145028903Y-96387885D01*
X146253458Y-96763744D01*
X147506801Y-97014345D01*
X148768632Y-97141890D01*
X150018649Y-97148577D01*
X151236549Y-97036607D01*
X152402031Y-96808179D01*
X153494794Y-96465495D01*
X154494535Y-96010753D01*
X155380953Y-95446154D01*
X155643330Y-95237627D01*
X155945666Y-94997352D01*
X156336426Y-94706137D01*
X156755470Y-94408133D01*
X157003751Y-94238894D01*
X157403585Y-93961185D01*
X157805582Y-93663939D01*
X158152507Y-93390295D01*
X158319451Y-93247249D01*
X158797303Y-92815150D01*
X158740010Y-93298900D01*
G37*
X158740010Y-93298900D02*
X158573546Y-93974196D01*
X158242418Y-94637817D01*
X157758352Y-95278477D01*
X157133072Y-95884886D01*
X156378304Y-96445755D01*
X155505773Y-96949797D01*
X154527203Y-97385724D01*
X154473745Y-97406276D01*
X153816039Y-97633946D01*
X153157132Y-97810117D01*
X152460612Y-97940574D01*
X151690066Y-98031100D01*
X150809081Y-98087481D01*
X150036389Y-98111189D01*
X149371847Y-98122171D01*
X148850784Y-98124485D01*
X148440431Y-98116533D01*
X148108019Y-98096714D01*
X147820780Y-98063428D01*
X147545946Y-98015076D01*
X147390556Y-97982003D01*
X146539675Y-97757571D01*
X145722851Y-97475124D01*
X144963138Y-97147089D01*
X144283592Y-96785892D01*
X143707267Y-96403961D01*
X143257219Y-96013721D01*
X142956502Y-95627598D01*
X142929035Y-95577302D01*
X142825552Y-95351726D01*
X142823702Y-95267999D01*
X142924755Y-95322917D01*
X143002882Y-95390856D01*
X143254131Y-95572157D01*
X143639136Y-95787464D01*
X144122870Y-96019540D01*
X144670307Y-96251149D01*
X145028903Y-96387885D01*
X146253458Y-96763744D01*
X147506801Y-97014345D01*
X148768632Y-97141890D01*
X150018649Y-97148577D01*
X151236549Y-97036607D01*
X152402031Y-96808179D01*
X153494794Y-96465495D01*
X154494535Y-96010753D01*
X155380953Y-95446154D01*
X155643330Y-95237627D01*
X155945666Y-94997352D01*
X156336426Y-94706137D01*
X156755470Y-94408133D01*
X157003751Y-94238894D01*
X157403585Y-93961185D01*
X157805582Y-93663939D01*
X158152507Y-93390295D01*
X158319451Y-93247249D01*
X158797303Y-92815150D01*
X158740010Y-93298900D01*
G36*
X148915929Y-117090431D02*
G01*
X149043217Y-117154791D01*
X149054280Y-117162692D01*
X149164925Y-117265628D01*
X149238280Y-117386261D01*
X149274245Y-117510046D01*
X149281583Y-117665145D01*
X149248747Y-117809876D01*
X149177467Y-117939850D01*
X149069475Y-118050678D01*
X149056951Y-118060368D01*
X148973629Y-118107112D01*
X148869461Y-118143352D01*
X148763332Y-118163828D01*
X148682846Y-118164573D01*
X148557492Y-118130783D01*
X148434448Y-118065825D01*
X148329567Y-117978637D01*
X148306225Y-117952207D01*
X148257277Y-117887001D01*
X148226835Y-117827877D01*
X148206606Y-117755973D01*
X148196610Y-117702871D01*
X148185856Y-117564790D01*
X148207537Y-117443629D01*
X148264651Y-117325880D01*
X148288133Y-117290640D01*
X148386143Y-117185405D01*
X148505846Y-117111444D01*
X148639324Y-117070080D01*
X148778658Y-117062634D01*
X148915929Y-117090431D01*
G37*
X148915929Y-117090431D02*
X149043217Y-117154791D01*
X149054280Y-117162692D01*
X149164925Y-117265628D01*
X149238280Y-117386261D01*
X149274245Y-117510046D01*
X149281583Y-117665145D01*
X149248747Y-117809876D01*
X149177467Y-117939850D01*
X149069475Y-118050678D01*
X149056951Y-118060368D01*
X148973629Y-118107112D01*
X148869461Y-118143352D01*
X148763332Y-118163828D01*
X148682846Y-118164573D01*
X148557492Y-118130783D01*
X148434448Y-118065825D01*
X148329567Y-117978637D01*
X148306225Y-117952207D01*
X148257277Y-117887001D01*
X148226835Y-117827877D01*
X148206606Y-117755973D01*
X148196610Y-117702871D01*
X148185856Y-117564790D01*
X148207537Y-117443629D01*
X148264651Y-117325880D01*
X148288133Y-117290640D01*
X148386143Y-117185405D01*
X148505846Y-117111444D01*
X148639324Y-117070080D01*
X148778658Y-117062634D01*
X148915929Y-117090431D01*
G36*
X144458780Y-117297265D02*
G01*
X144435791Y-116819714D01*
X144454680Y-116348350D01*
X144515436Y-115883230D01*
X144618050Y-115424418D01*
X144762511Y-114971971D01*
X144948811Y-114525949D01*
X145096718Y-114231332D01*
X145151829Y-114136224D01*
X145227358Y-114016584D01*
X145317314Y-113880963D01*
X145415708Y-113737918D01*
X145516550Y-113596001D01*
X145613850Y-113463766D01*
X145701619Y-113349769D01*
X145773867Y-113262562D01*
X145779515Y-113256196D01*
X146121284Y-112903780D01*
X146483437Y-112588463D01*
X146865919Y-112310272D01*
X147268679Y-112069239D01*
X147691664Y-111865392D01*
X148134819Y-111698761D01*
X148598093Y-111569376D01*
X148919059Y-111503656D01*
X149402736Y-111438779D01*
X149880286Y-111415791D01*
X150351651Y-111434680D01*
X150816770Y-111495436D01*
X151275583Y-111598050D01*
X151728029Y-111742511D01*
X152174051Y-111928811D01*
X152468669Y-112076717D01*
X152563776Y-112131829D01*
X152683417Y-112207358D01*
X152819037Y-112297314D01*
X152962083Y-112395708D01*
X153104000Y-112496549D01*
X153236234Y-112593850D01*
X153350232Y-112681618D01*
X153437438Y-112753867D01*
X153443805Y-112759515D01*
X153796221Y-113101284D01*
X154111538Y-113463437D01*
X154389728Y-113845919D01*
X154630761Y-114248679D01*
X154834609Y-114671663D01*
X155001239Y-115114819D01*
X155130625Y-115578092D01*
X155196345Y-115899058D01*
X155261221Y-116382736D01*
X155284209Y-116860286D01*
X155265320Y-117331651D01*
X155204564Y-117796770D01*
X155101951Y-118255583D01*
X154957489Y-118708029D01*
X154771189Y-119154051D01*
X154623284Y-119448669D01*
X154568171Y-119543776D01*
X154492642Y-119663417D01*
X154402686Y-119799037D01*
X154304293Y-119942083D01*
X154203451Y-120084000D01*
X154106150Y-120216234D01*
X154018382Y-120330232D01*
X153946133Y-120417438D01*
X153940486Y-120423805D01*
X153599120Y-120775305D01*
X153235496Y-121091043D01*
X152850204Y-121370643D01*
X152443830Y-121613728D01*
X152016964Y-121819921D01*
X151570194Y-121988846D01*
X151428060Y-122033492D01*
X151272030Y-122075475D01*
X151086691Y-122117716D01*
X150883840Y-122158138D01*
X150675275Y-122194666D01*
X150472789Y-122225224D01*
X150288180Y-122247733D01*
X150143566Y-122259588D01*
X149667161Y-122264383D01*
X149194544Y-122227248D01*
X148727213Y-122148520D01*
X148266664Y-122028539D01*
X147814394Y-121867646D01*
X147371901Y-121666180D01*
X147251332Y-121603283D01*
X147156224Y-121548171D01*
X147036584Y-121472642D01*
X146900963Y-121382686D01*
X146757918Y-121284293D01*
X146616001Y-121183450D01*
X146483766Y-121086150D01*
X146369769Y-120998381D01*
X146282562Y-120926133D01*
X146276196Y-120920486D01*
X145923780Y-120578716D01*
X145608463Y-120216563D01*
X145330272Y-119834081D01*
X145089239Y-119431321D01*
X144885392Y-119008336D01*
X144718761Y-118565181D01*
X144589376Y-118101907D01*
X144537966Y-117850829D01*
X144523656Y-117780941D01*
X144469099Y-117374196D01*
X146289777Y-117374196D01*
X146315867Y-117537337D01*
X146375012Y-117691430D01*
X146465543Y-117830627D01*
X146585790Y-117949082D01*
X146734086Y-118040948D01*
X146758474Y-118051999D01*
X146880019Y-118104621D01*
X146891460Y-118243483D01*
X146923399Y-118426236D01*
X146987452Y-118619931D01*
X147078963Y-118814532D01*
X147193273Y-119000003D01*
X147313196Y-119152399D01*
X147410336Y-119248880D01*
X147535771Y-119354646D01*
X147678945Y-119462185D01*
X147829293Y-119563986D01*
X147976257Y-119652535D01*
X148109276Y-119720321D01*
X148115352Y-119723022D01*
X148454879Y-119850497D01*
X148814816Y-119943762D01*
X149190242Y-120002526D01*
X149576235Y-120026496D01*
X149967877Y-120015383D01*
X150360245Y-119968891D01*
X150748418Y-119886733D01*
X150772246Y-119880456D01*
X151134173Y-119766654D01*
X151482177Y-119622958D01*
X151810547Y-119452467D01*
X152113575Y-119258279D01*
X152385549Y-119043489D01*
X152486348Y-118950584D01*
X152587964Y-118843243D01*
X152695060Y-118714462D01*
X152799148Y-118575746D01*
X152891747Y-118438594D01*
X152964369Y-118314508D01*
X152982944Y-118277462D01*
X153082690Y-118030009D01*
X153143003Y-117788337D01*
X153164901Y-117545731D01*
X153149394Y-117295471D01*
X153140408Y-117234671D01*
X153102135Y-117000150D01*
X153186516Y-116923149D01*
X153283763Y-116811042D01*
X153363836Y-116672672D01*
X153417828Y-116523608D01*
X153430906Y-116456171D01*
X153433738Y-116386682D01*
X153426086Y-116301199D01*
X153412540Y-116213591D01*
X153393819Y-116113334D01*
X153374959Y-116041434D01*
X153351036Y-115984187D01*
X153317130Y-115927889D01*
X153302074Y-115905984D01*
X153179905Y-115767267D01*
X153032752Y-115660931D01*
X152865747Y-115589608D01*
X152684026Y-115555934D01*
X152614921Y-115553540D01*
X152449040Y-115574768D01*
X152288264Y-115637092D01*
X152131709Y-115740935D01*
X152023840Y-115838880D01*
X152001769Y-115850772D01*
X151965981Y-115849081D01*
X151908270Y-115832200D01*
X151822948Y-115799537D01*
X151477969Y-115682887D01*
X151111048Y-115601675D01*
X150723742Y-115556124D01*
X150317610Y-115546457D01*
X150120091Y-115554408D01*
X150012431Y-115560763D01*
X149921288Y-115565937D01*
X149854280Y-115569514D01*
X149819023Y-115571077D01*
X149815537Y-115571057D01*
X149814992Y-115550283D01*
X149815999Y-115492692D01*
X149818355Y-115403763D01*
X149821856Y-115288975D01*
X149826297Y-115153808D01*
X149831476Y-115003741D01*
X149837188Y-114844253D01*
X149843228Y-114680824D01*
X149849396Y-114518933D01*
X149855485Y-114364059D01*
X149861292Y-114221683D01*
X149866614Y-114097283D01*
X149871245Y-113996338D01*
X149874985Y-113924328D01*
X149877626Y-113886732D01*
X149878333Y-113882556D01*
X149900671Y-113880375D01*
X149959818Y-113879782D01*
X150050282Y-113880692D01*
X150166569Y-113883014D01*
X150303190Y-113886661D01*
X150454650Y-113891544D01*
X150468587Y-113892033D01*
X151051075Y-113912599D01*
X151075545Y-113974532D01*
X151147882Y-114105958D01*
X151246724Y-114211043D01*
X151365404Y-114287777D01*
X151497258Y-114334152D01*
X151635622Y-114348158D01*
X151773832Y-114327784D01*
X151905224Y-114271022D01*
X151952629Y-114239004D01*
X152043682Y-114147865D01*
X152116639Y-114031131D01*
X152166441Y-113901108D01*
X152188025Y-113770108D01*
X152182773Y-113679304D01*
X152142984Y-113562102D01*
X152070342Y-113448152D01*
X151973814Y-113347291D01*
X151862366Y-113269353D01*
X151775080Y-113232071D01*
X151644283Y-113211570D01*
X151504241Y-113222751D01*
X151371591Y-113263794D01*
X151339347Y-113279682D01*
X151263528Y-113333658D01*
X151186650Y-113409423D01*
X151121010Y-113493085D01*
X151078902Y-113570753D01*
X151076979Y-113576111D01*
X151069992Y-113586313D01*
X151054002Y-113594081D01*
X151024713Y-113599492D01*
X150977830Y-113602625D01*
X150909058Y-113603559D01*
X150814100Y-113602372D01*
X150688660Y-113599144D01*
X150528445Y-113593953D01*
X150382882Y-113588818D01*
X150197145Y-113582857D01*
X150032495Y-113579009D01*
X149893002Y-113577287D01*
X149782740Y-113577707D01*
X149705780Y-113580283D01*
X149666194Y-113585029D01*
X149663075Y-113586265D01*
X149625617Y-113621543D01*
X149598631Y-113664324D01*
X149591974Y-113698361D01*
X149584617Y-113771174D01*
X149576760Y-113879219D01*
X149568602Y-114018947D01*
X149560345Y-114186811D01*
X149552188Y-114379265D01*
X149544333Y-114592761D01*
X149541620Y-114673983D01*
X149510604Y-115627544D01*
X149258532Y-115696297D01*
X148901094Y-115810378D01*
X148558291Y-115952622D01*
X148236252Y-116119827D01*
X147941109Y-116308789D01*
X147678989Y-116516304D01*
X147664260Y-116529442D01*
X147592018Y-116593215D01*
X147543099Y-116631652D01*
X147509927Y-116648355D01*
X147484928Y-116646927D01*
X147460522Y-116630967D01*
X147456974Y-116627992D01*
X147398880Y-116595617D01*
X147311603Y-116567065D01*
X147208288Y-116545636D01*
X147102080Y-116534629D01*
X147082403Y-116533983D01*
X146907192Y-116550774D01*
X146744488Y-116607236D01*
X146597152Y-116701820D01*
X146468046Y-116832980D01*
X146426515Y-116888949D01*
X146343432Y-117044155D01*
X146298408Y-117207854D01*
X146289777Y-117374196D01*
X144469099Y-117374196D01*
X144458780Y-117297265D01*
G37*
X144458780Y-117297265D02*
X144435791Y-116819714D01*
X144454680Y-116348350D01*
X144515436Y-115883230D01*
X144618050Y-115424418D01*
X144762511Y-114971971D01*
X144948811Y-114525949D01*
X145096718Y-114231332D01*
X145151829Y-114136224D01*
X145227358Y-114016584D01*
X145317314Y-113880963D01*
X145415708Y-113737918D01*
X145516550Y-113596001D01*
X145613850Y-113463766D01*
X145701619Y-113349769D01*
X145773867Y-113262562D01*
X145779515Y-113256196D01*
X146121284Y-112903780D01*
X146483437Y-112588463D01*
X146865919Y-112310272D01*
X147268679Y-112069239D01*
X147691664Y-111865392D01*
X148134819Y-111698761D01*
X148598093Y-111569376D01*
X148919059Y-111503656D01*
X149402736Y-111438779D01*
X149880286Y-111415791D01*
X150351651Y-111434680D01*
X150816770Y-111495436D01*
X151275583Y-111598050D01*
X151728029Y-111742511D01*
X152174051Y-111928811D01*
X152468669Y-112076717D01*
X152563776Y-112131829D01*
X152683417Y-112207358D01*
X152819037Y-112297314D01*
X152962083Y-112395708D01*
X153104000Y-112496549D01*
X153236234Y-112593850D01*
X153350232Y-112681618D01*
X153437438Y-112753867D01*
X153443805Y-112759515D01*
X153796221Y-113101284D01*
X154111538Y-113463437D01*
X154389728Y-113845919D01*
X154630761Y-114248679D01*
X154834609Y-114671663D01*
X155001239Y-115114819D01*
X155130625Y-115578092D01*
X155196345Y-115899058D01*
X155261221Y-116382736D01*
X155284209Y-116860286D01*
X155265320Y-117331651D01*
X155204564Y-117796770D01*
X155101951Y-118255583D01*
X154957489Y-118708029D01*
X154771189Y-119154051D01*
X154623284Y-119448669D01*
X154568171Y-119543776D01*
X154492642Y-119663417D01*
X154402686Y-119799037D01*
X154304293Y-119942083D01*
X154203451Y-120084000D01*
X154106150Y-120216234D01*
X154018382Y-120330232D01*
X153946133Y-120417438D01*
X153940486Y-120423805D01*
X153599120Y-120775305D01*
X153235496Y-121091043D01*
X152850204Y-121370643D01*
X152443830Y-121613728D01*
X152016964Y-121819921D01*
X151570194Y-121988846D01*
X151428060Y-122033492D01*
X151272030Y-122075475D01*
X151086691Y-122117716D01*
X150883840Y-122158138D01*
X150675275Y-122194666D01*
X150472789Y-122225224D01*
X150288180Y-122247733D01*
X150143566Y-122259588D01*
X149667161Y-122264383D01*
X149194544Y-122227248D01*
X148727213Y-122148520D01*
X148266664Y-122028539D01*
X147814394Y-121867646D01*
X147371901Y-121666180D01*
X147251332Y-121603283D01*
X147156224Y-121548171D01*
X147036584Y-121472642D01*
X146900963Y-121382686D01*
X146757918Y-121284293D01*
X146616001Y-121183450D01*
X146483766Y-121086150D01*
X146369769Y-120998381D01*
X146282562Y-120926133D01*
X146276196Y-120920486D01*
X145923780Y-120578716D01*
X145608463Y-120216563D01*
X145330272Y-119834081D01*
X145089239Y-119431321D01*
X144885392Y-119008336D01*
X144718761Y-118565181D01*
X144589376Y-118101907D01*
X144537966Y-117850829D01*
X144523656Y-117780941D01*
X144469099Y-117374196D01*
X146289777Y-117374196D01*
X146315867Y-117537337D01*
X146375012Y-117691430D01*
X146465543Y-117830627D01*
X146585790Y-117949082D01*
X146734086Y-118040948D01*
X146758474Y-118051999D01*
X146880019Y-118104621D01*
X146891460Y-118243483D01*
X146923399Y-118426236D01*
X146987452Y-118619931D01*
X147078963Y-118814532D01*
X147193273Y-119000003D01*
X147313196Y-119152399D01*
X147410336Y-119248880D01*
X147535771Y-119354646D01*
X147678945Y-119462185D01*
X147829293Y-119563986D01*
X147976257Y-119652535D01*
X148109276Y-119720321D01*
X148115352Y-119723022D01*
X148454879Y-119850497D01*
X148814816Y-119943762D01*
X149190242Y-120002526D01*
X149576235Y-120026496D01*
X149967877Y-120015383D01*
X150360245Y-119968891D01*
X150748418Y-119886733D01*
X150772246Y-119880456D01*
X151134173Y-119766654D01*
X151482177Y-119622958D01*
X151810547Y-119452467D01*
X152113575Y-119258279D01*
X152385549Y-119043489D01*
X152486348Y-118950584D01*
X152587964Y-118843243D01*
X152695060Y-118714462D01*
X152799148Y-118575746D01*
X152891747Y-118438594D01*
X152964369Y-118314508D01*
X152982944Y-118277462D01*
X153082690Y-118030009D01*
X153143003Y-117788337D01*
X153164901Y-117545731D01*
X153149394Y-117295471D01*
X153140408Y-117234671D01*
X153102135Y-117000150D01*
X153186516Y-116923149D01*
X153283763Y-116811042D01*
X153363836Y-116672672D01*
X153417828Y-116523608D01*
X153430906Y-116456171D01*
X153433738Y-116386682D01*
X153426086Y-116301199D01*
X153412540Y-116213591D01*
X153393819Y-116113334D01*
X153374959Y-116041434D01*
X153351036Y-115984187D01*
X153317130Y-115927889D01*
X153302074Y-115905984D01*
X153179905Y-115767267D01*
X153032752Y-115660931D01*
X152865747Y-115589608D01*
X152684026Y-115555934D01*
X152614921Y-115553540D01*
X152449040Y-115574768D01*
X152288264Y-115637092D01*
X152131709Y-115740935D01*
X152023840Y-115838880D01*
X152001769Y-115850772D01*
X151965981Y-115849081D01*
X151908270Y-115832200D01*
X151822948Y-115799537D01*
X151477969Y-115682887D01*
X151111048Y-115601675D01*
X150723742Y-115556124D01*
X150317610Y-115546457D01*
X150120091Y-115554408D01*
X150012431Y-115560763D01*
X149921288Y-115565937D01*
X149854280Y-115569514D01*
X149819023Y-115571077D01*
X149815537Y-115571057D01*
X149814992Y-115550283D01*
X149815999Y-115492692D01*
X149818355Y-115403763D01*
X149821856Y-115288975D01*
X149826297Y-115153808D01*
X149831476Y-115003741D01*
X149837188Y-114844253D01*
X149843228Y-114680824D01*
X149849396Y-114518933D01*
X149855485Y-114364059D01*
X149861292Y-114221683D01*
X149866614Y-114097283D01*
X149871245Y-113996338D01*
X149874985Y-113924328D01*
X149877626Y-113886732D01*
X149878333Y-113882556D01*
X149900671Y-113880375D01*
X149959818Y-113879782D01*
X150050282Y-113880692D01*
X150166569Y-113883014D01*
X150303190Y-113886661D01*
X150454650Y-113891544D01*
X150468587Y-113892033D01*
X151051075Y-113912599D01*
X151075545Y-113974532D01*
X151147882Y-114105958D01*
X151246724Y-114211043D01*
X151365404Y-114287777D01*
X151497258Y-114334152D01*
X151635622Y-114348158D01*
X151773832Y-114327784D01*
X151905224Y-114271022D01*
X151952629Y-114239004D01*
X152043682Y-114147865D01*
X152116639Y-114031131D01*
X152166441Y-113901108D01*
X152188025Y-113770108D01*
X152182773Y-113679304D01*
X152142984Y-113562102D01*
X152070342Y-113448152D01*
X151973814Y-113347291D01*
X151862366Y-113269353D01*
X151775080Y-113232071D01*
X151644283Y-113211570D01*
X151504241Y-113222751D01*
X151371591Y-113263794D01*
X151339347Y-113279682D01*
X151263528Y-113333658D01*
X151186650Y-113409423D01*
X151121010Y-113493085D01*
X151078902Y-113570753D01*
X151076979Y-113576111D01*
X151069992Y-113586313D01*
X151054002Y-113594081D01*
X151024713Y-113599492D01*
X150977830Y-113602625D01*
X150909058Y-113603559D01*
X150814100Y-113602372D01*
X150688660Y-113599144D01*
X150528445Y-113593953D01*
X150382882Y-113588818D01*
X150197145Y-113582857D01*
X150032495Y-113579009D01*
X149893002Y-113577287D01*
X149782740Y-113577707D01*
X149705780Y-113580283D01*
X149666194Y-113585029D01*
X149663075Y-113586265D01*
X149625617Y-113621543D01*
X149598631Y-113664324D01*
X149591974Y-113698361D01*
X149584617Y-113771174D01*
X149576760Y-113879219D01*
X149568602Y-114018947D01*
X149560345Y-114186811D01*
X149552188Y-114379265D01*
X149544333Y-114592761D01*
X149541620Y-114673983D01*
X149510604Y-115627544D01*
X149258532Y-115696297D01*
X148901094Y-115810378D01*
X148558291Y-115952622D01*
X148236252Y-116119827D01*
X147941109Y-116308789D01*
X147678989Y-116516304D01*
X147664260Y-116529442D01*
X147592018Y-116593215D01*
X147543099Y-116631652D01*
X147509927Y-116648355D01*
X147484928Y-116646927D01*
X147460522Y-116630967D01*
X147456974Y-116627992D01*
X147398880Y-116595617D01*
X147311603Y-116567065D01*
X147208288Y-116545636D01*
X147102080Y-116534629D01*
X147082403Y-116533983D01*
X146907192Y-116550774D01*
X146744488Y-116607236D01*
X146597152Y-116701820D01*
X146468046Y-116832980D01*
X146426515Y-116888949D01*
X146343432Y-117044155D01*
X146298408Y-117207854D01*
X146289777Y-117374196D01*
X144469099Y-117374196D01*
X144458780Y-117297265D01*
G36*
X151295044Y-116639492D02*
G01*
X151426345Y-116686666D01*
X151491200Y-116725853D01*
X151602161Y-116826721D01*
X151679218Y-116946246D01*
X151722105Y-117077685D01*
X151730549Y-117214295D01*
X151704284Y-117349333D01*
X151643036Y-117476057D01*
X151546539Y-117587725D01*
X151526347Y-117604941D01*
X151433019Y-117664954D01*
X151324935Y-117709899D01*
X151217564Y-117734615D01*
X151135399Y-117735449D01*
X150980502Y-117694277D01*
X150849423Y-117620462D01*
X150745731Y-117517349D01*
X150672989Y-117388282D01*
X150639834Y-117270624D01*
X150633228Y-117125730D01*
X150662643Y-116992826D01*
X150722711Y-116875347D01*
X150808068Y-116776725D01*
X150913345Y-116700396D01*
X151033178Y-116649790D01*
X151162200Y-116628345D01*
X151295044Y-116639492D01*
G37*
X151295044Y-116639492D02*
X151426345Y-116686666D01*
X151491200Y-116725853D01*
X151602161Y-116826721D01*
X151679218Y-116946246D01*
X151722105Y-117077685D01*
X151730549Y-117214295D01*
X151704284Y-117349333D01*
X151643036Y-117476057D01*
X151546539Y-117587725D01*
X151526347Y-117604941D01*
X151433019Y-117664954D01*
X151324935Y-117709899D01*
X151217564Y-117734615D01*
X151135399Y-117735449D01*
X150980502Y-117694277D01*
X150849423Y-117620462D01*
X150745731Y-117517349D01*
X150672989Y-117388282D01*
X150639834Y-117270624D01*
X150633228Y-117125730D01*
X150662643Y-116992826D01*
X150722711Y-116875347D01*
X150808068Y-116776725D01*
X150913345Y-116700396D01*
X151033178Y-116649790D01*
X151162200Y-116628345D01*
X151295044Y-116639492D01*
G36*
X151481706Y-118433355D02*
G01*
X151496690Y-118442809D01*
X151543702Y-118495856D01*
X151550063Y-118560630D01*
X151515769Y-118637019D01*
X151506431Y-118650419D01*
X151388702Y-118780983D01*
X151233033Y-118903409D01*
X151043455Y-119015109D01*
X150823997Y-119113496D01*
X150732614Y-119147201D01*
X150601541Y-119186494D01*
X150443384Y-119224022D01*
X150271772Y-119257377D01*
X150100333Y-119284150D01*
X149942699Y-119301934D01*
X149820678Y-119308294D01*
X149593475Y-119299785D01*
X149382765Y-119271654D01*
X149195045Y-119225337D01*
X149036808Y-119162268D01*
X148960422Y-119118127D01*
X148884657Y-119058262D01*
X148847812Y-119003637D01*
X148847739Y-118949206D01*
X148870208Y-118905929D01*
X148923558Y-118859356D01*
X148993352Y-118850089D01*
X149081270Y-118878049D01*
X149113447Y-118894813D01*
X149263675Y-118959184D01*
X149451274Y-119004580D01*
X149663763Y-119030024D01*
X149739903Y-119034083D01*
X149812790Y-119033841D01*
X149891563Y-119028434D01*
X149985361Y-119016996D01*
X150103320Y-118998659D01*
X150236588Y-118975738D01*
X150383270Y-118949150D01*
X150496998Y-118926422D01*
X150586697Y-118905223D01*
X150661293Y-118883227D01*
X150729710Y-118858103D01*
X150795681Y-118829862D01*
X150964389Y-118744670D01*
X151112725Y-118650992D01*
X151232128Y-118554564D01*
X151279659Y-118505563D01*
X151350833Y-118440867D01*
X151417276Y-118417060D01*
X151481706Y-118433355D01*
G37*
X151481706Y-118433355D02*
X151496690Y-118442809D01*
X151543702Y-118495856D01*
X151550063Y-118560630D01*
X151515769Y-118637019D01*
X151506431Y-118650419D01*
X151388702Y-118780983D01*
X151233033Y-118903409D01*
X151043455Y-119015109D01*
X150823997Y-119113496D01*
X150732614Y-119147201D01*
X150601541Y-119186494D01*
X150443384Y-119224022D01*
X150271772Y-119257377D01*
X150100333Y-119284150D01*
X149942699Y-119301934D01*
X149820678Y-119308294D01*
X149593475Y-119299785D01*
X149382765Y-119271654D01*
X149195045Y-119225337D01*
X149036808Y-119162268D01*
X148960422Y-119118127D01*
X148884657Y-119058262D01*
X148847812Y-119003637D01*
X148847739Y-118949206D01*
X148870208Y-118905929D01*
X148923558Y-118859356D01*
X148993352Y-118850089D01*
X149081270Y-118878049D01*
X149113447Y-118894813D01*
X149263675Y-118959184D01*
X149451274Y-119004580D01*
X149663763Y-119030024D01*
X149739903Y-119034083D01*
X149812790Y-119033841D01*
X149891563Y-119028434D01*
X149985361Y-119016996D01*
X150103320Y-118998659D01*
X150236588Y-118975738D01*
X150383270Y-118949150D01*
X150496998Y-118926422D01*
X150586697Y-118905223D01*
X150661293Y-118883227D01*
X150729710Y-118858103D01*
X150795681Y-118829862D01*
X150964389Y-118744670D01*
X151112725Y-118650992D01*
X151232128Y-118554564D01*
X151279659Y-118505563D01*
X151350833Y-118440867D01*
X151417276Y-118417060D01*
X151481706Y-118433355D01*
M02*
